<svg xmlns="http://www.w3.org/2000/svg" viewBox="0 0 14.69 8.26"><defs><style>.cls-1{fill:#1d1d1b;}</style></defs><g id="Layer_2" data-name="Layer 2"><g id="Layer_1-2" data-name="Layer 1"><path class="cls-1" d="M3.4,2.25l-.93-.07C1.71,3.16,1,4.1.24,5.05a.72.72,0,0,0-.17.81A3,3,0,0,1,2,6.3C3.09,6.89,4.21,7.46,5.34,8a2.08,2.08,0,0,0,.59.21.55.55,0,0,0,.57-.38c0-.21-.12-.34-.26-.45a1.65,1.65,0,0,0-.31-.2A16.69,16.69,0,0,0,2.26,5.74c-.33-.08-.66-.14-1-.23A.51.51,0,0,1,1,4.64a4.64,4.64,0,0,1,.38-.39C2,3.7,2.56,3.16,3.13,2.61a1.63,1.63,0,0,0,.24-.38c.6-.09.8-.57,1-1-.23-.4-.23-.4-.57-.54C3,1.43,3,1.47,3.4,2.25Z"/><path class="cls-1" d="M13.25,2.71c-.25.31-.43.51-.58.74-.28.4-.54.82-.82,1.22s-.69.94-1,1.42a6.23,6.23,0,0,0-.44.8.3.3,0,0,0,.1.41c.12.06.33.12.42.06a1.9,1.9,0,0,0,.64-.62A15.79,15.79,0,0,1,13,4.51,6.84,6.84,0,0,1,14.15,3.2a1.23,1.23,0,0,0,.54-.78c-.1-.1-.2-.27-.35-.34C13.24,1.53,12.14,1,11,.47,10.61.28,10.17.15,9.75,0a2.4,2.4,0,0,1-.39.32,3.17,3.17,0,0,1-.5.18l2.27,1.06A7.71,7.71,0,0,1,13.25,2.71Z"/></g></g></svg>