<svg xmlns="http://www.w3.org/2000/svg" viewBox="0 0 49.98 36.71"><defs><style>.cls-1{fill:#ffffff;}</style></defs><g id="Layer_2" data-name="Layer 2"><g id="Layer_1-2" data-name="Layer 1"><path class="cls-1" d="M36,31.32c-.13-.39-.24-.64-.3-.9a63,63,0,0,1-1.21-6.67c-.45-3.26-.81-6.52-1.24-9.78-.35-2.75-.74-5.5-1.12-8.25A2.62,2.62,0,0,0,31.94,5a.52.52,0,0,0-.38-.22.48.48,0,0,0-.38.22,1.32,1.32,0,0,0-.06.68,13.21,13.21,0,0,1,.22,1.88,9.12,9.12,0,0,0,.5,1.8,2.49,2.49,0,0,1,.08.35l.51,4.13,1.14,9.56c0,.27,0,.54.06.81a3.83,3.83,0,0,1-.4-1.13,77.76,77.76,0,0,0-2-8A12.12,12.12,0,0,1,31,9c-.22-.25-.43-.54-.68-.78a.5.5,0,0,0-.42-.12,1.36,1.36,0,0,0-.36.42s0,.07,0,.11c0,1.15,0,2.31.1,3.45.29,2.44.68,4.86,1.05,7.29.26,1.77.55,3.52.81,5.29A38.63,38.63,0,0,0,32.92,31a12,12,0,0,0,1.42,3,6.78,6.78,0,0,1,.51,1c.17.36.32.73.48,1.09s.22.52.54.57.5-.21.64-.6a1.12,1.12,0,0,0,.06-.23,3.2,3.2,0,0,1,.68-1.73,3.44,3.44,0,0,1,.11-2.47c1.06-3.45,2.14-6.89,3.52-10.23.5-1.21,1-2.41,1.52-3.62,1.23-2.92,2.43-5.85,3.7-8.76,1.16-2.65,2.4-5.26,3.6-7.89A3.56,3.56,0,0,0,50,.51c0-.2,0-.43-.19-.5a.86.86,0,0,0-.44.06c-.07,0-.12.1-.17.17a6.47,6.47,0,0,0-.91,1.38,9.85,9.85,0,0,1-2.14,2.8H46c-.77-.16-.89-.12-1,.53a10.65,10.65,0,0,1-1.35,3.54A21,21,0,0,0,42,12.18c-.4,1.2-.79,2.41-1.15,3.62-.67,2.24-1.37,4.47-2,6.73-.67,2.58-1.47,5.11-2.28,7.64A2.09,2.09,0,0,1,36,31.32Z"/><path class="cls-1" d="M23,5.77c.17-.27.37-.45.39-.65s-.28-.49-.53-.56a3.27,3.27,0,0,0-.94-.1c-.79,0-1.58,0-2.38,0a9.09,9.09,0,0,0-2.6.21c-.8.22-1.6.46-2.39.72a2.27,2.27,0,0,1-1.15.2A4.42,4.42,0,0,0,9.63,6.83c-1.06,1-2.05,2-3.05,3A25.43,25.43,0,0,0,4.68,12a15.83,15.83,0,0,0-2.33,4.93C1.68,19,1.08,21.14.45,23.27c-.12.42-.23.84-.33,1.27a4.79,4.79,0,0,0,.75,3.85A2.53,2.53,0,0,1,1.3,29.6a5,5,0,0,0,1,2.39,5.58,5.58,0,0,0,3.1,2.09,24.88,24.88,0,0,0,5.54,1.33,34.44,34.44,0,0,0,3.8.09,2.84,2.84,0,0,0,.81-.16c.61-.2.73-.55.48-1.33-.48.14-.84.54-1.4.56A20,20,0,0,1,8.12,34a17.58,17.58,0,0,1-3.24-1.15A12.58,12.58,0,0,1,3.2,31.69a.61.61,0,0,1-.29-.76,3.15,3.15,0,0,1,.38.24l.86.83a4.13,4.13,0,0,0,2.41,1.17c.71.08,1.41.21,2.11.36a16.26,16.26,0,0,0,5.21,0l1.89-.24a5.18,5.18,0,0,0,1-.21,1.37,1.37,0,0,0,.57-.41.46.46,0,0,0,.09-.42c0-.12-.21-.2-.34-.27a.39.39,0,0,0-.24,0l-2.7.41a18.89,18.89,0,0,1-2.59.32,16.85,16.85,0,0,1-4.24-.51,3.55,3.55,0,0,1-1.64-.94,14.07,14.07,0,0,0,6-.11c1.2-.25,2.4-.54,3.6-.8.66-.14,1.33-.24,2-.37.19,0,.39-.09.37-.37a2.06,2.06,0,0,0-1.15-.15,19.93,19.93,0,0,0-4.92.81,14.65,14.65,0,0,1-3.89.43,3.94,3.94,0,0,1-3.16-1.4,17.38,17.38,0,0,1-1.42-1.9,3.24,3.24,0,0,1-.54-2.27c.1-.67.19-1.34.32-2a23.21,23.21,0,0,1,2.7-6.7c.59-1,1.29-2,1.83-3.06a16.66,16.66,0,0,1,2.36-3.28A17,17,0,0,1,12.9,7.38,2.57,2.57,0,0,1,14,6.93a8.22,8.22,0,0,1,2.71-.12,1.91,1.91,0,0,0,.71,0,9.42,9.42,0,0,1,4.68.41.89.89,0,0,0,1.12-.32Z"/></g></g></svg>