<svg xmlns="http://www.w3.org/2000/svg" viewBox="0 0 29.59 38.62"><defs><style>.cls-1{fill:#ffffff;}</style></defs><g id="Layer_2" data-name="Layer 2"><g id="Layer_1-2" data-name="Layer 1"><path class="cls-1" d="M22.86,33.27a13.58,13.58,0,0,1-1-3.85c-.32-2.08-.6-4.16-.91-6.24-.26-1.77-.55-3.53-.81-5.29-.16-1.06-.29-2.13-.44-3.19-.19-1.29-.38-2.58-.6-3.87-.28-1.72-.59-3.44-.91-5.16-.23-1.25-.49-2.49-.75-3.73a4.15,4.15,0,0,0-.33-.89.43.43,0,0,0-.59-.24.84.84,0,0,0-.29.45.73.73,0,0,0,0,.36c.15.65.3,1.31.44,2,.2.93.41,1.86.58,2.79.21,1.21.36,2.44.6,3.64.31,1.52.59,3,.76,4.57a36.09,36.09,0,0,0,.67,5.07,3.54,3.54,0,0,1,.07.47c.1,1,.18,2,.31,3,.52,3.77,1,7.54,1.73,11.28.05.23.07.47.1.71.1.82.2,1.65.33,2.47a1.66,1.66,0,0,0,.25.65.49.49,0,0,0,.81,0,2.81,2.81,0,0,0,.33-1A20.41,20.41,0,0,1,24,33.85a47,47,0,0,0,1.21-5.09c.46-2.74.8-5.49,1.44-8.2a16.42,16.42,0,0,0,.47-4.36,5.77,5.77,0,0,1,0-.72,46.63,46.63,0,0,1,1-6,12.22,12.22,0,0,0,.42-3.41,8.34,8.34,0,0,1,.36-2.58c.27-1,.46-2,.67-3,.05-.21,0-.42-.22-.47a.87.87,0,0,0-.55.07.7.7,0,0,0-.29.36A3.71,3.71,0,0,0,28.4,1c-.18.77-.31,1.56-.56,2.31a7.46,7.46,0,0,0-.4,2.81,10.74,10.74,0,0,1-.38,3.29A33.94,33.94,0,0,0,26,16.61a22.93,22.93,0,0,1-.48,4.12c-.26,1.12-.52,2.25-.67,3.39a65.1,65.1,0,0,1-1.46,7.46C23.23,32.15,23,32.71,22.86,33.27Z"/><path class="cls-1" d="M0,25.3A44.87,44.87,0,0,0,.81,33a8.14,8.14,0,0,0,2,4.35,3.65,3.65,0,0,0,2.7,1.26,9,9,0,0,0,4.21-.52c.25-.11.53-.15.79-.24a3.47,3.47,0,0,0,.65-.29,1.06,1.06,0,0,0,.51-1c0-.53-.44-.82-.88-.55a4.52,4.52,0,0,1-1.9.64c-.86.13-1.72.24-2.59.34a2.31,2.31,0,0,1-2.37-1,7.3,7.3,0,0,0-.69-1,3.81,3.81,0,0,1-.9-1.79,35.14,35.14,0,0,1-1-6.69,58.51,58.51,0,0,1,.91-12.66A25.37,25.37,0,0,1,3.73,8.47a21.2,21.2,0,0,1,2-3.93A6.3,6.3,0,0,1,9.35,1.71,4.77,4.77,0,0,0,10.7,1a.48.48,0,0,0,.16-.41.48.48,0,0,0-.32-.3,2.63,2.63,0,0,0-.93,0A10.78,10.78,0,0,0,7.94.92a4.58,4.58,0,0,0-1.24.9A13.46,13.46,0,0,0,4,5.56C3.27,7.1,2.6,8.67,2,10.26a21.76,21.76,0,0,0-.64,2.65,29.88,29.88,0,0,0-.91,5.87c0,.95-.16,1.89-.22,2.84C.15,22.85.08,24.07,0,25.3Z"/><path class="cls-1" d="M24.92,36.38l.09-.29c-.06,0-.14-.07-.17-.05a.22.22,0,0,0-.08.19S24.84,36.31,24.92,36.38Z"/></g></g></svg>