<svg xmlns="http://www.w3.org/2000/svg" viewBox="0 0 27.6 16.08"><defs><style>.cls-1{fill:#ffffff;}</style></defs><g id="Layer_2" data-name="Layer 2"><g id="Layer_1-2" data-name="Layer 1"><path class="cls-1" d="M4,5.44l0,0A2.09,2.09,0,0,1,4.21,5a9.47,9.47,0,0,1,2.51-2.5A7.93,7.93,0,0,1,11.9,1.19,2.4,2.4,0,0,0,13.6.78,9.44,9.44,0,0,0,11.89.41a1,1,0,0,1-.56-.12A1.36,1.36,0,0,0,10,.08,24.26,24.26,0,0,0,7.43.69,11.31,11.31,0,0,0,.59,6.41,5.06,5.06,0,0,0,.11,9.87a2.46,2.46,0,0,0,.33.88,5.51,5.51,0,0,0,1.65,1.68,6.69,6.69,0,0,0,2.78,1c2.13.18,4.27.31,6.41.45a2,2,0,0,0,.54-.15c-.2-.18-.29-.33-.41-.36A9.9,9.9,0,0,0,9.9,13c-1.62-.15-3.24-.28-4.86-.41A5.52,5.52,0,0,1,2.3,11.58,3.36,3.36,0,0,1,.88,9.46a3.94,3.94,0,0,1,.24-2.33A10.18,10.18,0,0,1,3.75,3.5a3.06,3.06,0,0,1,1.39-.67c-.38.41-.72.74-1,1.1A5.56,5.56,0,0,0,2.53,8.6a2.41,2.41,0,0,0,1.72,2.17,15.59,15.59,0,0,0,7.05.58,7.21,7.21,0,0,0,1-.2c.18-.05.39-.13.36-.43-.25-.33-.86-.12-1.07-.61,0-.08-.29-.09-.44-.09-.4,0-.79.06-1.18.1-1.07.09-2.14.24-3.2.26A4.07,4.07,0,0,1,4,9.51a1.16,1.16,0,0,1-.4-1.67A19.45,19.45,0,0,1,5.12,5.41a4.13,4.13,0,0,1,2.6-1.75,4.94,4.94,0,0,0,.79-.34l-.34-.56a2.58,2.58,0,0,0,1.42,0c-.59-.24-1,0-1.42,0-.12.08-.23.22-.37.25A6.35,6.35,0,0,0,4.48,5.12,2.1,2.1,0,0,1,4,5.44Z"/><path class="cls-1" d="M24.91,6.76l0,0a17.47,17.47,0,0,0,1.69-3,.33.33,0,0,0,0-.23.43.43,0,0,0-.18-.28.34.34,0,0,0-.31,0,1.6,1.6,0,0,0-.36.46c-.85,1.62-1.71,3.22-2.5,4.86-.55,1.14-1,2.33-1.5,3.49-.08.19-.23.33-.46.16,0-.55,0-1.11,0-1.66a2.39,2.39,0,0,1,.12-.7,13.38,13.38,0,0,1,2.52-4.81,21.2,21.2,0,0,0,1.46-2c.12-.17.27-.41,0-.62a.56.56,0,0,0-.23,0,1.48,1.48,0,0,0-.36.3,23.66,23.66,0,0,0-3.21,4.55c-.07.15-.1.4-.45.28V7.09c0-.83,0-1.67.06-2.49a15.82,15.82,0,0,1-.08-2.48c.05-.21-.26-.43-.49-.4a.35.35,0,0,0-.32.42,9.42,9.42,0,0,1,.21,1.16c0,1.34-.08,2.69-.11,4a13.39,13.39,0,0,0,0,1.9,4,4,0,0,1-.62,2.6c-.09.16-.16.37-.46.28a4.13,4.13,0,0,1-.14-.42,18.07,18.07,0,0,1-.57-5.07c0-1,.13-2,.17-3,0-.77,0-.76-.81-1.09-.18-.07-.3-.25-.47-.35a.41.41,0,0,0-.61.34,3.29,3.29,0,0,0,0,.7c0,.27.15.54.18.81.25,1.76.46,3.53.72,5.3a16.05,16.05,0,0,0,.71,3.48,3.17,3.17,0,0,0,2.12,2.09c.17.28.35.59.55.88a.49.49,0,0,0,.92-.11,7.94,7.94,0,0,0,.52-2.28l-.46-.29c-.14-.69.42-.42.72-.59a23.4,23.4,0,0,1,2.35-4.48A28.88,28.88,0,0,1,27.48,5a.33.33,0,0,0,.12-.2c0-.11,0-.26-.07-.31a.34.34,0,0,0-.31,0A4.94,4.94,0,0,0,25.87,6,1.28,1.28,0,0,1,24.91,6.76Z"/></g></g></svg>