<svg xmlns="http://www.w3.org/2000/svg" viewBox="0 0 32.05 14.41"><defs><style>.cls-1{fill:#ffffff;}</style></defs><g id="Layer_2" data-name="Layer 2"><g id="Layer_1-2" data-name="Layer 1"><path class="cls-1" d="M19.42,2.24c.17-.27.2-.52-.16-.63-.1,0-.28.06-.37.15s0,.23.05.32.31.18.51.14a1.62,1.62,0,0,0,.27,1.24A11.19,11.19,0,0,1,21,7.63a29.43,29.43,0,0,0,.86,4.07,7.42,7.42,0,0,0,.56,1.56,3.42,3.42,0,0,0,.84,1,.81.81,0,0,0,1.16-.19A5.78,5.78,0,0,0,25,13a15.4,15.4,0,0,1,2.12-4.23C27.75,8,28.37,7.22,29,6.48s1.1-1.13,1.67-1.68A5.34,5.34,0,0,0,32,3c.12-.28.11-.55-.34-.66a2.78,2.78,0,0,0-.48.44,15.36,15.36,0,0,1-2,2c-.76.75-1.48,1.55-2.25,2.3A10.82,10.82,0,0,0,25,9.64c-.39.69-.85,1.33-1.29,2a4.32,4.32,0,0,1-.43.43,5.82,5.82,0,0,1-.67-1.6A21.15,21.15,0,0,1,22,3a3.07,3.07,0,0,0,0-.59,3.1,3.1,0,0,1-.69-.24c-.19-.12-.31-.37-.67-.2l-.26.7C20,2.65,19.85,2.13,19.42,2.24Z"/><path class="cls-1" d="M14,11.07a3.8,3.8,0,0,0-1.71,0,22,22,0,0,1-3.44.19,7.73,7.73,0,0,1-3.45-.76A4.53,4.53,0,0,1,2.6,6.14a2.87,2.87,0,0,1,1-2.09A9.45,9.45,0,0,1,5.29,3,23.87,23.87,0,0,1,9.4,1.43a5.48,5.48,0,0,1,4.17.2,4.83,4.83,0,0,0,.67.24c.12,0,.28-.17.23-.32a4.07,4.07,0,0,0-.24-.47l.4-.67a4.25,4.25,0,0,0-2.5-.36,6.68,6.68,0,0,1-1.89.08A9.54,9.54,0,0,0,5,.94,9.75,9.75,0,0,0,1.79,3.12a4.81,4.81,0,0,0-1.69,4A4.87,4.87,0,0,1,0,8.21,2.77,2.77,0,0,0,.34,9.93a5.66,5.66,0,0,0,3.08,2.68A12.76,12.76,0,0,0,9,13.35c.94-.1,1.9-.14,2.85-.17a3.31,3.31,0,0,0,1.39-.26c.18-.09.32-.23.15-.47l-1.27-.08c.19-.29.28-.54.44-.63a5.42,5.42,0,0,1,.92-.26C13.69,11.43,13.92,11.42,14,11.07Z"/></g></g></svg>