<svg xmlns="http://www.w3.org/2000/svg" viewBox="0 0 35.74 18.01"><defs><style>.cls-1{fill:#ffffff;}</style></defs><g id="Layer_2" data-name="Layer 2"><g id="Layer_1-2" data-name="Layer 1"><path class="cls-1" d="M15.21.8c.19-.21.1-.37,0-.45A2.43,2.43,0,0,0,13.59,0c-.67.1-1.34.19-2,.23A12.35,12.35,0,0,0,7.24,1.4,23.17,23.17,0,0,0,3.05,3.87a7.46,7.46,0,0,0-3,6.51,3.16,3.16,0,0,0,1.84,3,9.49,9.49,0,0,0,3.77,1c2.74.17,5.47.29,8.21.2.59,0,1.18-.09,1.77-.16a1.49,1.49,0,0,0,.4-.15c0-.09,0-.16-.06-.16a31,31,0,0,0-3.61-.28c0-.1,0-.15,0-.16.51-.35,1.21-.43,1.49-1.1,0-.11.27-.14.41-.21s.57,0,.74-.31c-.05-.36-.33-.31-.55-.29-1.14.1-2.29.18-3.43.34a24.45,24.45,0,0,1-5.34.08,4.06,4.06,0,0,1-2.6-1C1.59,9.67,1.4,8.47,2.43,7A3.89,3.89,0,0,1,3.91,5.65l3-1.48c.29-.14.57-.28.84-.44a2.34,2.34,0,0,0,.36-.51c-.62.18-1,.28-1.44.41s-.81.33-1.22.48a2.84,2.84,0,0,1-1.25.4c.16-.18.21-.29.31-.35A16,16,0,0,1,8.25,2.44c1.07-.3,2.16-.49,3.23-.8a1.38,1.38,0,0,1,1.13.09c.23.12.44.26.69.4,0-.17.09-.27.06-.31a1.74,1.74,0,0,0-1.56-.67A16.37,16.37,0,0,0,10,1.39c.08-.2.2-.33.33-.33a15,15,0,0,1,2.59-.3c.19,0,.46.06.58,0,.47-.41.89-.13,1.34,0A1.55,1.55,0,0,0,15.21.8Z"/><path class="cls-1" d="M23.54,3a7.92,7.92,0,0,0-1,.46.72.72,0,0,0-.26.48c0,.1.16.29.28.32a.91.91,0,0,1,.72.55,15.37,15.37,0,0,1,1,3.41,27.47,27.47,0,0,0,1,4.65c.37,1.17.71,2.35,1.07,3.52.07.23.16.45.25.67a1.74,1.74,0,0,0,.93.88.81.81,0,0,0,1-.19,1.85,1.85,0,0,0,.35-.48c.47-.95.93-1.92,1.41-2.88C31.17,12.56,32,10.69,33,9c.88-1.47,1.59-3,2.4-4.5a2.66,2.66,0,0,0,.34-1.37c0-.26-.07-.52-.34-.55a.61.61,0,0,0-.44.31c-.24.41-.38.88-.64,1.26-.78,1.14-1.56,2.29-2.41,3.38a26.63,26.63,0,0,0-2.86,4.36,12.79,12.79,0,0,1-2,2.71,6.77,6.77,0,0,1-.26-1q-.07-1.19-.09-2.37a33.42,33.42,0,0,0-.19-5.1,7.08,7.08,0,0,0-1-2.79A3.68,3.68,0,0,0,25,2.83a2.34,2.34,0,0,0-.09.43.93.93,0,0,0,.08.45,6.07,6.07,0,0,1,.59,1.79A11.38,11.38,0,0,1,25.88,10c-.33-1.13-.62-2.06-.88-3-.09-.3-.1-.62-.17-.93-.2-.77-.41-1.53-.62-2.3A1,1,0,0,0,23.54,3Z"/><path class="cls-1" d="M10.85,3c-.32-.51-.8-.45-1.18-.52A1.53,1.53,0,0,0,8.42,3a.92.92,0,0,0,1,.38c.3-.07.61-.06.91-.12A3,3,0,0,0,10.85,3Z"/></g></g></svg>