<svg xmlns="http://www.w3.org/2000/svg" viewBox="0 0 26.43 11.63"><defs><style>.cls-1{fill:#ffffff;}</style></defs><g id="Layer_2" data-name="Layer 2"><g id="Layer_1-2" data-name="Layer 1"><path class="cls-1" d="M6.73,1.46A2,2,0,0,1,8.38,1a11.52,11.52,0,0,0,1.18.14,2.86,2.86,0,0,0,.83,0,.32.32,0,0,0,.18-.54C9.42.56,9.42.56,8.84,0a14.15,14.15,0,0,0-3.4,1.22A24.56,24.56,0,0,0,1.69,3.94,4.73,4.73,0,0,0,0,7a3.15,3.15,0,0,0,1.1,2.88,6.56,6.56,0,0,0,3.32,1.5,26.06,26.06,0,0,0,5.58.18,7.66,7.66,0,0,0,1.74-.39,1.81,1.81,0,0,0,1.3-1.27A1.28,1.28,0,0,0,13,9.46a1.5,1.5,0,0,0-.39.17,4.36,4.36,0,0,1-2.36,1,15.21,15.21,0,0,1-6.61-.4,6.41,6.41,0,0,1-1.51-.69A2.32,2.32,0,0,1,1,6.64a4.79,4.79,0,0,1,2.23-3c.41-.22.89-.41.93-1,.49-.43.84-1.08,1.7-.75.36.14.65-.2.88-.49Z"/><path class="cls-1" d="M15.52,3.12A9.85,9.85,0,0,1,17,6.91c.28,1,.55,1.9.86,2.84a5.52,5.52,0,0,0,.51,1.07.42.42,0,0,0,.7,0,4.69,4.69,0,0,0,.67-1.11A13.33,13.33,0,0,1,22.93,5.1c.95-.95,2-1.8,3-2.7a3.38,3.38,0,0,0,.44-.4.34.34,0,0,0,0-.32A.54.54,0,0,0,26,1.49a1.35,1.35,0,0,0-.49.31c-.57.49-1.14,1-1.69,1.49-.76.7-1.51,1.4-2.23,2.13A13.79,13.79,0,0,0,19.16,9c-.08.17-.16.38-.48.31a6.84,6.84,0,0,1-.53-1.64C17.79,6.45,17.42,5.2,17,4a1.72,1.72,0,0,0-.64-1A.56.56,0,0,0,15.52,3.12Z"/></g></g></svg>