<svg xmlns="http://www.w3.org/2000/svg" viewBox="0 0 22.67 12.79"><defs><style>.cls-1{fill:#ffffff;}</style></defs><g id="Layer_2" data-name="Layer 2"><g id="Layer_1-2" data-name="Layer 1"><path class="cls-1" d="M9.37.76C9.14.6,9.08.51,9,.52a5.56,5.56,0,0,0-2,.46l-2,1C2.13,3.26.69,5.66.06,8.65a3.11,3.11,0,0,0,.58,2.48,3.62,3.62,0,0,0,2.58,1.54A18.9,18.9,0,0,0,11,11.86a1.44,1.44,0,0,0,.61-.35.64.64,0,0,0,.14-.51c-.05-.22-.29-.26-.49-.19-.37.13-.73.31-1.11.42A26.62,26.62,0,0,1,5.44,12a6,6,0,0,1-2.91-.48A2.54,2.54,0,0,1,1,8.59a7.89,7.89,0,0,1,4.55-6L8.76,1.09C8.93,1,9.09.91,9.37.76Z"/><path class="cls-1" d="M16.91,10.07a29.06,29.06,0,0,1-.79-3.77A23.36,23.36,0,0,1,16,3.93a1.08,1.08,0,0,1,.09-.58c.38-.57,0-1.07-.12-1.58a.36.36,0,0,0-.46-.27.49.49,0,0,0-.26.34c-.08.63-.16,1.26-.18,1.89a21.94,21.94,0,0,0,.66,5.65,9.76,9.76,0,0,0,.58,1.56.73.73,0,0,0,.61.5c.38,0,.56-.28.68-.57a11.09,11.09,0,0,0,.53-1.46,4.64,4.64,0,0,1,.53-1.18,18.41,18.41,0,0,1,3.6-4.41,1.81,1.81,0,0,0,.39-.44.51.51,0,0,0,0-.42.48.48,0,0,0-.42-.13,1.26,1.26,0,0,0-.48.33c-.73.78-1.46,1.56-2.16,2.37A9.31,9.31,0,0,0,17.6,8.77,8.61,8.61,0,0,1,16.91,10.07Z"/><path class="cls-1" d="M11.25.44c-.33-.52-.56-.56-1.41-.23C10.45.68,10.45.68,11.25.44Z"/></g></g></svg>