<svg xmlns="http://www.w3.org/2000/svg" viewBox="0 0 18.67 7.35"><defs><style>.cls-1{fill:#ffffff;}</style></defs><g id="Layer_2" data-name="Layer 2"><g id="Layer_1-2" data-name="Layer 1"><path class="cls-1" d="M12.5,5.44a4.13,4.13,0,0,1-.34-.54c-.23-.63-.42-1.28-.65-1.91A8,8,0,0,0,11,1.92a.43.43,0,0,0-.4-.14.43.43,0,0,0-.18.37,15.1,15.1,0,0,0,1.3,4.42,2.17,2.17,0,0,0,.41.58A.5.5,0,0,0,13,7a14.73,14.73,0,0,0,.62-1.55A3.7,3.7,0,0,1,14.56,4a17.61,17.61,0,0,1,3.63-3,1.09,1.09,0,0,0,.37-.29.49.49,0,0,0,.09-.41A.48.48,0,0,0,18.28,0a1.63,1.63,0,0,0-.76.25c-1,.78-2,1.59-2.95,2.4a3.08,3.08,0,0,0-.45.55c-.42.62-.82,1.25-1.24,1.87A2.25,2.25,0,0,1,12.5,5.44Z"/><path class="cls-1" d="M5.51.63a6,6,0,0,0-.57-.2A4.45,4.45,0,0,0,2.32,1,3.93,3.93,0,0,0,0,4.74a2.2,2.2,0,0,0,1.08,2A3.09,3.09,0,0,0,3,7.22a20.56,20.56,0,0,0,2.72-.29,17.13,17.13,0,0,0,2.49-.79,1.8,1.8,0,0,0,.64-.5.51.51,0,0,0,0-.42c0-.06-.2-.1-.31-.09a.88.88,0,0,0-.33.12,14.28,14.28,0,0,1-4,1,6.15,6.15,0,0,1-1.66,0,1.65,1.65,0,0,1-1.61-2c0-.16.05-.32.08-.47A4,4,0,0,1,2.34,1.71a2.35,2.35,0,0,1,2-.76A1.31,1.31,0,0,0,5.51.63Z"/></g></g></svg>