<svg xmlns="http://www.w3.org/2000/svg" viewBox="0 0 13.64 16.71"><defs><style>.cls-1{fill:#1d1d1b;}</style></defs><g id="Layer_2" data-name="Layer 2"><g id="Layer_1-2" data-name="Layer 1"><path class="cls-1" d="M4.39,15.29a5.46,5.46,0,0,1-.23-1.68c0-1.51,0-3,0-4.52a4.6,4.6,0,0,0,0-.64.33.33,0,0,0-.52-.15A.72.72,0,0,0,3.29,9c0,.56,0,1.11,0,1.66,0,1.54.05,3.08.09,4.61a5.82,5.82,0,0,0,.15,1.1c.09.39.39.51.68.25a1.7,1.7,0,0,1,1.08-.44c.67-.05,1.35-.14,2-.14.89,0,1.78.06,2.67.07a10.29,10.29,0,0,0,1.47-.12.54.54,0,0,0,.47-.67c0-.34-.11-.67-.17-1a18.65,18.65,0,0,1-.54-4.65V9.53a.87.87,0,0,0-.76-.69c-.31,0-.43.33-.34.81a.29.29,0,0,0,0,.09c.15.57.29,1.13.43,1.7a1.82,1.82,0,0,1,.09,1.17,2.39,2.39,0,0,0,0,1.54c.24,1,.08,1.19-1,1.14a20.65,20.65,0,0,0-4.23.12A1.35,1.35,0,0,1,4.39,15.29Z"/><path class="cls-1" d="M7.45,1.61a.91.91,0,0,1,.6.75,12.92,12.92,0,0,0,2.42,4.31,27.24,27.24,0,0,0,2.3,2.12,1.58,1.58,0,0,0,.58.24c.17,0,.35-.23.28-.39a1,1,0,0,0-.21-.29,8.08,8.08,0,0,0-.79-.63A9.34,9.34,0,0,1,10.08,5,25.21,25.21,0,0,1,8.86,2.59,4.12,4.12,0,0,1,8.17.44.39.39,0,0,0,7.87,0a.46.46,0,0,0-.49.16,1.24,1.24,0,0,0-.17.23A45.41,45.41,0,0,1,3.1,5.49l-.19.19c-.47.48-.93,1-1.41,1.46S.72,7.91.33,8.3a2.48,2.48,0,0,0-.28.36.32.32,0,0,0,.06.42A.27.27,0,0,0,.5,9a1.47,1.47,0,0,1,.91-.85,1.91,1.91,0,0,0,.8-.6L7.07,2.11A5.51,5.51,0,0,0,7.45,1.61Z"/></g></g></svg>