<svg xmlns="http://www.w3.org/2000/svg" viewBox="0 0 35.93 19.12"><defs><style>.cls-1{fill:#1d1d1b;}</style></defs><g id="Layer_2" data-name="Layer 2"><g id="Layer_1-2" data-name="Layer 1"><path class="cls-1" d="M.9,18.26a4.18,4.18,0,0,1,0-.88,15.41,15.41,0,0,1,.44-1.65C2.14,13.37,3,11,3.72,8.68A29.15,29.15,0,0,0,5,2,14.61,14.61,0,0,0,5,.47a.84.84,0,0,0-.2-.4A.21.21,0,0,0,4.64,0c-.09,0-.22.1-.25.19a2.27,2.27,0,0,0,0,.45A19.07,19.07,0,0,1,3.57,7.2c-.92,2.91-2,5.78-2.91,8.68A21.91,21.91,0,0,0,0,18.54a.45.45,0,0,0,.61.56l.11,0c.89-.34,1.79-.64,2.67-1a27,27,0,0,1,5.1-1.69,3.67,3.67,0,0,1,2.13.09,2.66,2.66,0,0,0,.76.23.6.6,0,0,0,.44-.27c.11-.19-.05-.35-.22-.45a1.72,1.72,0,0,0-.42-.18,5.24,5.24,0,0,0-2.83-.08A19,19,0,0,0,4,17.13a12.7,12.7,0,0,1-1.35.62A4.5,4.5,0,0,1,.9,18.26Z"/><path class="cls-1" d="M20.77,15.52a3.51,3.51,0,0,1-.07-1.46,14,14,0,0,0,.09-1.71,2.74,2.74,0,0,0-.27-1.09.74.74,0,0,0-1.22-.32,9.4,9.4,0,0,0-1,1.07c-.19.22-.19.58-.54.76,0-.17-.09-.31-.11-.44-.08-.69-.17-1.37-.23-2.05a6.48,6.48,0,0,0-.89-2.7,2.54,2.54,0,0,0-1.72-1.22,1.54,1.54,0,0,0-.87.11c-.17.07-.28.34-.35.54s.09.25.14.39c.81-.38,1.06-.4,1.55-.16a2.33,2.33,0,0,1,1,1.07A6,6,0,0,1,17,10.82a13.93,13.93,0,0,1-.18,3.53,6.1,6.1,0,0,0-.11,1.13c0,.09.11.25.17.25s.33-.05.38-.14a6.19,6.19,0,0,0,.32-.85A8.24,8.24,0,0,1,19,12c.19-.22.39-.49.78-.35a2.15,2.15,0,0,1,.44,1.91c-.11.52-.18,1.05-.24,1.58a4,4,0,0,0,0,.91.44.44,0,0,0,.7.31,7.25,7.25,0,0,0,2.55-2.08c.07-.11.2-.24-.06-.38A8,8,0,0,1,20.77,15.52Z"/><path class="cls-1" d="M30,15.39c.14.1.26.28.4.29a3.65,3.65,0,0,0,2.11-.27,2.3,2.3,0,0,1,1.08-.35,2.82,2.82,0,0,0,2-1.07.91.91,0,0,0-.12-1.55,4.11,4.11,0,0,0-1.12-.53,9,9,0,0,0-2.82-.36c-.37,0-.86.1-1-.3s.26-.75.54-1a12.62,12.62,0,0,1,1.16-.88.35.35,0,0,0-.58-.15c-.55.4-1.07.84-1.6,1.27a1.64,1.64,0,0,0-.29.35.64.64,0,0,0,.24,1,3.31,3.31,0,0,0,1.43.34c.83,0,1.66.14,2.49.25a1.6,1.6,0,0,1,1.07.6.44.44,0,0,1,0,.62,3.47,3.47,0,0,1-1.57,1.08A23.28,23.28,0,0,1,30,15.39Z"/><path class="cls-1" d="M28.41,12.59a12.08,12.08,0,0,0-.88,1,3.65,3.65,0,0,1-1.37,1,.57.57,0,0,1-.9-.36,5.12,5.12,0,0,1-.23-1.1A10.38,10.38,0,0,1,25,12c-.51.1-.58.14-.64.4a4.21,4.21,0,0,0,.2,2.14,1.11,1.11,0,0,0,1.58.82A4.37,4.37,0,0,0,28.51,13C28.54,12.93,28.47,12.81,28.41,12.59Z"/><path class="cls-1" d="M13.63,11.14a11.6,11.6,0,0,0,.11,4.06,2.65,2.65,0,0,0,.27.62.29.29,0,0,0,.47,0,.88.88,0,0,0,.11-.53,11.07,11.07,0,0,1-.36-3,2.16,2.16,0,0,0-.14-.66C14.05,11.46,13.9,11.39,13.63,11.14Z"/><path class="cls-1" d="M28.6,10.08c-.25.91-.25.91,0,1.5A1.33,1.33,0,0,0,28.6,10.08Z"/><path class="cls-1" d="M14.26,10.82c.06-.13.15-.23.13-.29a.3.3,0,0,0-.24-.15c-.06,0-.17.16-.16.21S14.14,10.72,14.26,10.82Z"/></g></g></svg>