<svg xmlns="http://www.w3.org/2000/svg" viewBox="0 0 15.09 9.8"><g id="Layer_2" data-name="Layer 2"><g id="Layer_1-2" data-name="Layer 1"><path d="M0,1,.58.38A.85.85,0,0,1,1.73.12,1.1,1.1,0,0,1,2.38.7a.82.82,0,0,0,.77.54c.53.06,1.06.13,1.59.15A19.69,19.69,0,0,0,9.82,1a5.46,5.46,0,0,0,1.5-.52,1.19,1.19,0,0,1,1.77.81,11.92,11.92,0,0,1,.28,1.47,21.76,21.76,0,0,0,.91,4A6.53,6.53,0,0,0,15,8.33a.62.62,0,0,1-.46,1,1.16,1.16,0,0,1-.49,0,14.75,14.75,0,0,0-4.78-.16c-.63,0-1.26.09-1.89.11a15.62,15.62,0,0,0-1.8.16,12.81,12.81,0,0,1-1.39.11,14.5,14.5,0,0,0-2,.27c-.57.11-.81-.1-.83-.69A2.23,2.23,0,0,1,1.52,8a1.83,1.83,0,0,0,0-1.45C1.35,6,1.24,5.52,1.1,5a2.17,2.17,0,0,1,0-1.38A.76.76,0,0,0,1,2.87a1,1,0,0,1-.08-1c.12-.47,0-.68-.5-.77a1,1,0,0,0-.3,0C.08,1.17,0,1.14,0,1ZM4.05,8.45a12.8,12.8,0,0,0,2-.16c1.53-.08,3.07-.14,4.6-.21a6.91,6.91,0,0,0,2-.29c.51-.18.63-.37.52-.9A3.76,3.76,0,0,0,13,6.41a10.44,10.44,0,0,1-.45-2c-.06-.53-.13-1.06-.17-1.59a2.12,2.12,0,0,0-.3-.95.26.26,0,0,0-.35-.09,2.59,2.59,0,0,0-.72.68L8,6a4.62,4.62,0,0,1-.46.52.66.66,0,0,1-1,0l-.64-.48A12.36,12.36,0,0,1,3.4,3.83c-.29-.36-.63-.68-1-1a.29.29,0,0,0-.37,0,.33.33,0,0,0-.14.35c.13.69.28,1.37.38,2.06A4.2,4.2,0,0,0,2.89,7,.71.71,0,0,1,3,7.64c0,.16-.11.31-.15.47s0,.38.29.38S3.66,8.47,4.05,8.45ZM6,2.23c-.66,0-1.33,0-2,0-.3,0-.41.22-.26.48A7.37,7.37,0,0,0,6.55,5.24a.67.67,0,0,0,.9-.18A30,30,0,0,0,9.61,2.58a.72.72,0,0,0,.12-.27c0-.1,0-.23-.12-.23a3.49,3.49,0,0,0-.79,0A13.67,13.67,0,0,1,6,2.23Z"/></g></g></svg>