<svg xmlns="http://www.w3.org/2000/svg" viewBox="0 0 18.9 11.7"><g id="Layer_2" data-name="Layer 2"><g id="Layer_1-2" data-name="Layer 1"><path d="M1.51,1.65a1.91,1.91,0,0,1,1.21.15,2,2,0,0,0,.7.09A25.14,25.14,0,0,0,8,1.84c.3,0,.6,0,.9-.06,1.46-.12,2.92-.25,4.39-.35a23.76,23.76,0,0,1,2.39-.12A2.57,2.57,0,0,0,17.48.55a2.13,2.13,0,0,1,.62-.5.52.52,0,0,1,.63.13.53.53,0,0,1,0,.57,1.13,1.13,0,0,1-.57.53,1.77,1.77,0,0,0-1,1.54,3.72,3.72,0,0,0,0,1c.26,1.54.55,3.09.85,4.62a7.66,7.66,0,0,0,.73,1.86.54.54,0,0,1,0,.65.55.55,0,0,1-.71.19,7.71,7.71,0,0,0-4.21-.53c-2.09.17-4.18.43-6.25.8a14.66,14.66,0,0,1-4.18.22c-.44-.05-.87-.07-1.3-.1-.24,0-.49,0-.6-.28s0-.51.22-.71l.07-.07c.24-.17.22-.39.16-.63s-.07-.33-.12-.49A10.89,10.89,0,0,1,1.32,6.2a8.77,8.77,0,0,1,0-2.29.75.75,0,0,0-.34-.69C.72,3,.46,2.86.23,2.67a.54.54,0,0,1,.15-1A2.13,2.13,0,0,1,1,1.6,4.13,4.13,0,0,1,1.51,1.65Zm15.37,7.9c.27,0,.39-.08.34-.33s-.08-.32-.12-.48c-.39-1.59-.71-3.19-.94-4.81,0-.33.07-.67-.13-1-.45,0-.68.35-1,.54l-.16.13A21.86,21.86,0,0,0,10.4,8.17a.63.63,0,0,1-1.15.05A4.27,4.27,0,0,0,8,7.16C6.82,6.45,5.7,5.73,4.6,5A11,11,0,0,1,3.05,3.73a.52.52,0,0,0-.84.32,2.68,2.68,0,0,0,0,.49c.06.73.13,1.47.19,2.2a4.88,4.88,0,0,0,.75,2.65.44.44,0,0,1,0,.56,1.31,1.31,0,0,0-.17.24.22.22,0,0,0,.2.35,7.14,7.14,0,0,0,.8,0c1.07,0,2.13,0,3.2-.06a6.71,6.71,0,0,0,1-.13,27.72,27.72,0,0,1,5.05-.66c.33,0,.66-.09,1-.12A6.5,6.5,0,0,1,16.88,9.55Zm-2.25-7a1,1,0,0,0-.71-.15l-2,.13c-.53,0-1.07,0-1.6.07-1.65.17-3.31.31-5,.33A3.19,3.19,0,0,0,3.88,3c.17.55.67.77,1.07,1.09a44.29,44.29,0,0,0,4.49,2.8.44.44,0,0,0,.55,0l.31-.26c1.1-1.16,2.34-2.17,3.52-3.25C14.09,3.09,14.33,2.81,14.63,2.5Z"/></g></g></svg>