<svg xmlns="http://www.w3.org/2000/svg" viewBox="0 0 20.22 12.48"><g id="Layer_2" data-name="Layer 2"><g id="Layer_1-2" data-name="Layer 1"><path d="M2,3.92a4,4,0,0,0-1.52.15C.18,4.11,0,4,0,3.71a.32.32,0,0,1,.17-.33c.17-.07.24.05.29.17a.38.38,0,0,1,0,.1c.16.24.35.26.43,0A.91.91,0,0,1,1.82,3a16,16,0,0,0,2.07-.36,11.6,11.6,0,0,1,1.58-.14c1.52-.2,3-.46,4.55-.69a25.35,25.35,0,0,1,3.35-.52,15.27,15.27,0,0,0,1.78-.26c.53-.06,1.07-.13,1.6-.14A1.5,1.5,0,0,0,18,.39a1.24,1.24,0,0,1,.29-.27.54.54,0,0,1,.84.2c.11.21.18.43.28.64a.61.61,0,0,1,0,.57,3.38,3.38,0,0,0-.19,2.06l1,6.23c0,.14.05.27.06.4a.72.72,0,0,1-1,.77,2.65,2.65,0,0,1-.62-.33c-.24-.17-.56-.19-.78-.42s-.48.23-.79.14-.61,0-.89-.07a10.57,10.57,0,0,0-2.69-.18,37.81,37.81,0,0,0-5,.35c-1.16.19-2.27.52-3.41.77a.49.49,0,0,0-.4.4,1.35,1.35,0,0,1-.29.63.47.47,0,0,1-.82-.08,3,3,0,0,0-.24-.55.87.87,0,0,1-.1-1.24,1.31,1.31,0,0,0,.08-.88C3.25,8.26,3.13,7,3.17,5.72c0-.36,0-.73,0-1.1,0-.55-.18-.73-.73-.7Zm11.45.82V4.52A32.16,32.16,0,0,0,16,2.26.3.3,0,0,0,16.07,2c0-.1-.13-.13-.24-.12-1.09.12-2.19.19-3.28.37-2.2.35-4.4.75-6.6,1.13a.45.45,0,0,0-.35.26c.45.53.8,1.2,1.61,1.35a1.54,1.54,0,0,1,.44.23c.66.39,1.32.79,2,1.17.4.23.82.45,1.24.65a.41.41,0,0,0,.6-.17,3.78,3.78,0,0,0,.26-.43A3.06,3.06,0,0,1,13.1,5.21.68.68,0,0,0,13.44,4.74ZM4.24,6.81h.07c0,.7,0,1.4,0,2.1A8.13,8.13,0,0,0,4.45,10a.31.31,0,0,0,.36.26,2.57,2.57,0,0,0,.4-.08c1.57-.27,3.15-.57,4.73-.82a16.38,16.38,0,0,1,4.69-.11,3.38,3.38,0,0,0,.9,0,7.22,7.22,0,0,1,2.58,0h.1c.43,0,.57-.08.57-.48a2.75,2.75,0,0,0,0-.4c-.16-1.09-.31-2.18-.47-3.27C18.2,4.53,18.1,3.9,18,3.27c-.06-.42.17-.85,0-1.26-.57-.06-.69.55-1.1.75a1.37,1.37,0,0,0-.24.18,18.4,18.4,0,0,0-2.16,1.78,6.77,6.77,0,0,0-2.11,3c-.21.65-.6.83-1.25.54A21.78,21.78,0,0,1,8.71,7,38,38,0,0,1,4.8,4.25a.57.57,0,0,0-.35-.15c-.2,0-.21.24-.21.4C4.23,5.27,4.24,6,4.24,6.81Z"/><path d="M13.46,4.51v.24l-.28-.11,0,0Z"/><path d="M13.18,4.64v.07l0,0Z"/></g></g></svg>