<svg xmlns="http://www.w3.org/2000/svg" viewBox="0 0 41.08 28.62"><defs><style>.cls-1{fill:#1d1d1b;}</style></defs><g id="Layer_2" data-name="Layer 2"><g id="Layer_1-2" data-name="Layer 1"><path class="cls-1" d="M9,12.16A9.06,9.06,0,0,0,10.18,10c.5-1.29,1.15-2.51,1.65-3.81a19.12,19.12,0,0,1,2.41-4.08,1.2,1.2,0,0,1,.24-.26c.15-.12.3-.28.51-.06a4.14,4.14,0,0,1-.45,1.81,2.22,2.22,0,0,0-.23.67,46.82,46.82,0,0,0-.92,5.27c-.05.67-.17,1.33-.26,2s-.26,1.48-.34,2.23c-.24,2.49-.52,5-.52,7.47a19.6,19.6,0,0,0,.15,2,1.31,1.31,0,0,0,.2.54.39.39,0,0,0,.3.14.41.41,0,0,0,.26-.22,1.43,1.43,0,0,0,.05-.58,17.43,17.43,0,0,1,0-4.27c.21-2.45.37-4.91.65-7.35.24-2.08.62-4.15,1-6.22.22-1.41.48-2.82.71-4.22a4.5,4.5,0,0,0,0-.82c0-.18-.33-.29-.48-.17a2.08,2.08,0,0,0-.32.34c-.34.48-.68,1-1,1.47a18.83,18.83,0,0,0-1.07,1.71c-1.2,2.32-2.37,4.66-3.54,7a5.26,5.26,0,0,0-.4,1C8.74,11.69,8.89,11.88,9,12.16Z"/><path class="cls-1" d="M2.93,5.36a7.59,7.59,0,0,0-.39,1.23A9.63,9.63,0,0,0,2.5,8c0,.12,0,.24,0,.36a68.45,68.45,0,0,1-1,7.53A100,100,0,0,0,0,26.38,11.51,11.51,0,0,0,.07,28a.85.85,0,0,0,.17.43.39.39,0,0,0,.31.15.36.36,0,0,0,.27-.2,3.16,3.16,0,0,0,0-.69,15.08,15.08,0,0,1-.11-1.89c.16-1.9.34-3.8.62-5.68C1.93,16.44,2.65,12.74,3.1,9a2.49,2.49,0,0,1,.32-1.21c.37.18.31.49.34.75.07.56.05,1.12.17,1.66a31,31,0,0,0,1.53,5,4.15,4.15,0,0,0,.45.83,2.66,2.66,0,0,0,.59.57.51.51,0,0,0,.8-.21,1.87,1.87,0,0,0,.15-.32c.29-.69.58-1.39.86-2.09a.84.84,0,0,0,0-.32c-.25,0-.27.18-.33.31-.24.45-.45.93-.7,1.37a2.74,2.74,0,0,1-.47.5,3.43,3.43,0,0,1-1-1.78A77.11,77.11,0,0,1,3.55,6.17,1.11,1.11,0,0,0,2.93,5.36Z"/><path class="cls-1" d="M40,16.51a2.84,2.84,0,0,0-1.5.27,8.8,8.8,0,0,0-3.17,2.44,3.82,3.82,0,0,0-.88,2.41A1.78,1.78,0,0,0,36,23.49a2,2,0,0,0,.82,0,13.87,13.87,0,0,0,1.67-.61c.61-.28,1.19-.62,1.78-1,.26-.15.49-.34.78-.55-.17-.06-.25-.12-.31-.11a5.09,5.09,0,0,0-2.33.81,3.45,3.45,0,0,1-1.77.63,1.17,1.17,0,0,1-1.38-1.45,3.24,3.24,0,0,1,.28-.9,4.7,4.7,0,0,1,1.22-1.58,11.63,11.63,0,0,1,2.42-1.5C39.52,17.11,39.88,17,40,16.51Z"/><path class="cls-1" d="M22.81,23.34c-.24.1-.24.29-.16.48a1.06,1.06,0,0,0,.83.6,6.28,6.28,0,0,0,5.67-1.37,1.14,1.14,0,0,0,.07-1.92,3.28,3.28,0,0,0-.66-.5c-.35-.19-.72-.33-1.07-.51s-1-.49-1.48-.77a.75.75,0,0,1-.44-.78c.17-.68.21-1.44,1-1.8a1.48,1.48,0,0,0,.37-.29c.11-.11.27-.21,0-.43a5.56,5.56,0,0,0-2.06,1.88,1.22,1.22,0,0,0,.18,1.63,3.44,3.44,0,0,0,1.26.87c.51.22,1,.43,1.52.68a3.44,3.44,0,0,1,.77.54.59.59,0,0,1,0,.94A5.9,5.9,0,0,1,25.55,24,3,3,0,0,1,22.81,23.34Z"/><path class="cls-1" d="M23,16.56c-.3.11-.49.11-.55.2a5.69,5.69,0,0,0-.49.95c-.56,1.43-.89,2.95-1.55,4.35,0,.7-.59,1-1,1.39a.41.41,0,0,1-.62-.11,3.32,3.32,0,0,1-.4-1,16.68,16.68,0,0,1-.17-2.12c0-.67.07-1.35.09-2a1.74,1.74,0,0,0-.17-.48c-.2.12-.37.16-.44.27a1.26,1.26,0,0,0-.14.57c0,1.11-.07,2.22-.06,3.32a3.33,3.33,0,0,0,.5,1.7c.67,1.12,1.58,1.14,2.32,0a9.1,9.1,0,0,0,1.32-3.28,7.25,7.25,0,0,1,.46-1.59C22.38,18.11,22.63,17.41,23,16.56Z"/><path class="cls-1" d="M31.43,17c-.28.18-.06.44-.13.64s-.21.43-.29.65a1,1,0,0,0,0,.35,26.28,26.28,0,0,0,1,5.13,1,1,0,0,0,.24.4.41.41,0,0,0,.32.1c.09,0,.23-.14.23-.22a2.83,2.83,0,0,0-.05-.82c-.07-.3-.25-.58-.31-.89-.29-1.48-.56-3-.84-4.44C31.52,17.62,31.75,17.28,31.43,17Z"/><path class="cls-1" d="M32.53,12.06l-.36-.24c0,.06-.09.15-.07.18a.69.69,0,0,0,.24.21S32.43,12.14,32.53,12.06Z"/></g></g></svg>