<svg xmlns="http://www.w3.org/2000/svg" viewBox="0 0 11.7 13.35"><defs><style>.cls-1{fill:#1d1d1b;}</style></defs><g id="Layer_2" data-name="Layer 2"><g id="Layer_1-2" data-name="Layer 1"><path class="cls-1" d="M7.16,2.91a6.42,6.42,0,0,0,1.17.21.68.68,0,0,1,.57.18,1.14,1.14,0,0,0,.45.31,2.19,2.19,0,0,1,1.31,1.44c.08.16.11.35.19.51a.35.35,0,0,0,.55.09.78.78,0,0,0,.28-.45,2.24,2.24,0,0,0-.06-1,5.83,5.83,0,0,0-4.2-4A6.84,6.84,0,0,0,6.23,0,1.62,1.62,0,0,0,4.58,1.41c-.12.76-.24,1.52-.32,2.28A40.87,40.87,0,0,0,3.8,7.81a1.57,1.57,0,0,1,0,.37c-.07.29-.2.39-.52.42a2.74,2.74,0,0,0-.91.09A3.71,3.71,0,0,0,.07,11a2,2,0,0,0,1,2.25,1.22,1.22,0,0,0,1.07,0,4.2,4.2,0,0,0,1.61-1.05A.77.77,0,0,1,4.06,12a2.36,2.36,0,0,0,1.15-1.7A1.2,1.2,0,0,0,5,9a.92.92,0,0,1-.24-.76c0-.61,0-1.23.1-1.84.09-.76.24-1.52.35-2.28a.86.86,0,0,1,.7-.75C6.33,3.21,6.76,3,7.16,2.91Z"/></g></g></svg>