<svg xmlns="http://www.w3.org/2000/svg" viewBox="0 0 7.79 12.49"><defs><style>.cls-1{fill:#1d1d1b;}</style></defs><g id="Layer_2" data-name="Layer 2"><g id="Layer_1-2" data-name="Layer 1"><path class="cls-1" d="M4.14,9,2.38,8.88C1.18,8.82.68,9.5.07,10.42a.69.69,0,0,0-.06.45,2.09,2.09,0,0,0,1.47,1.6,2.35,2.35,0,0,0,1.89-.57,10,10,0,0,0,1-1.3c.21-.3.39-.63.61-.92a1.91,1.91,0,0,0,.42-1.2,8.35,8.35,0,0,0-.59-3.15C4.34,4.26,4,3.14,3.6,2a1.45,1.45,0,0,1-.08-.36.55.55,0,0,1,.41-.63,1.58,1.58,0,0,1,1.34.13,3.24,3.24,0,0,1,1.6,2.56c0,.46,0,.92,0,1.39a5.93,5.93,0,0,0,0,.73.34.34,0,0,0,.56.21.77.77,0,0,0,.35-.62A7.45,7.45,0,0,0,7.6,2.79,3.9,3.9,0,0,0,5.94.44,2.4,2.4,0,0,0,4,.06,5.39,5.39,0,0,0,3,.41a1,1,0,0,0-.63,1.35c.05.15.11.29.17.43L4.2,6.68a2.6,2.6,0,0,1,.1.25A2.81,2.81,0,0,1,4.14,9Z"/></g></g></svg>