<svg xmlns="http://www.w3.org/2000/svg" viewBox="0 0 8.31 15.46"><defs><style>.cls-1{fill:#1d1d1b;}</style></defs><g id="Layer_2" data-name="Layer 2"><g id="Layer_1-2" data-name="Layer 1"><path class="cls-1" d="M4.59,11.56c-.33.38-.39.42-.61.21a1.87,1.87,0,0,0-1.73-.35,3.57,3.57,0,0,0-1.46.75,1.46,1.46,0,0,0-.65,1.91c.08.19.1.42.18.61a1.15,1.15,0,0,0,1.48.72c1.66-.4,2.42-1.71,3.05-3.09a9.83,9.83,0,0,0,.49-2.06,1.46,1.46,0,0,0,0-.72,11.37,11.37,0,0,0-.79-2.16C4,6.43,3.32,5.55,2.7,4.64c-.19-.28-.38-.56-.54-.85a1.23,1.23,0,0,1,.23-1.53A2.86,2.86,0,0,1,3.53,1.5c.35-.13.71-.23,1-.38a1.27,1.27,0,0,1,1.24.08A2.74,2.74,0,0,1,7.29,3.09a4.55,4.55,0,0,1,0,2,.75.75,0,0,0,.26.79,4.52,4.52,0,0,0,.53-.28.35.35,0,0,0,.12-.24,13,13,0,0,0,0-2.57A3.46,3.46,0,0,0,5.83.11a1.27,1.27,0,0,0-.9,0,13,13,0,0,0-3,1.4,2.08,2.08,0,0,0-.58,3.12c.44.63.89,1.25,1.36,1.86A7.86,7.86,0,0,1,4.12,9.31a2.44,2.44,0,0,1,0,1.44C4,11.18,4,11.19,4.59,11.56Z"/></g></g></svg>