<svg xmlns="http://www.w3.org/2000/svg" viewBox="0 0 12.49 15.71"><g id="Layer_2" data-name="Layer 2"><g id="Layer_1-2" data-name="Layer 1"><path d="M12.49,8.38a13.73,13.73,0,0,1-.79,4.4,6.79,6.79,0,0,0-.18.78,1.86,1.86,0,0,1-.61,1.12,4.8,4.8,0,0,1-1.64.94,3.21,3.21,0,0,1-1.57,0,8.14,8.14,0,0,0-2.14-.31A2,2,0,0,1,4.61,15c-.38-.19-.67-.55-1.13-.59-.68-.73-1.71-1-2.26-1.92a11.6,11.6,0,0,1-.79-1.26A7.55,7.55,0,0,1,.12,7.3,8,8,0,0,1,2.17,3c.38-.42.71-.88,1.11-1.29A6,6,0,0,1,7.1,0,2.74,2.74,0,0,1,8.73.39c.35.19.71.37,1.07.55a3.88,3.88,0,0,1,2.32,3.15C12.27,5.52,12.37,7,12.49,8.38Zm-1,.12c-.06-1-.07-1.73-.14-2.46A12.23,12.23,0,0,0,11,3.87a2.4,2.4,0,0,0-.59-1.14A6.75,6.75,0,0,0,7.86,1.05a1.57,1.57,0,0,0-1-.08A7.41,7.41,0,0,0,5,1.67,8.83,8.83,0,0,0,1.87,5.09a.74.74,0,0,0-.16.66.3.3,0,0,1,0,.28,1,1,0,0,0-.22,1.18c.07.21,0,.48-.16.54-.34.13-.28.3-.16.52a1.6,1.6,0,0,1,0,1.71.69.69,0,0,0,.08.75,11.4,11.4,0,0,0,1.06,1.69,6.91,6.91,0,0,0,1.82,1.37,8.59,8.59,0,0,0,3.41,1.09,2.86,2.86,0,0,0,1.09,0c.23-.06.46-.15.5-.43a.85.85,0,0,1,.45-.62,2.72,2.72,0,0,0,.77-.78,5.84,5.84,0,0,0,1.06-2.87A7.77,7.77,0,0,0,11.51,8.5Z"/><path d="M4.91,5a2.28,2.28,0,0,1,.31,1.31c0,.47,0,.93,0,1.4a.84.84,0,0,0,.27.61c.21.21.06.51-.24.57a.67.67,0,0,1-.89-.56,4.1,4.1,0,0,1-.09-1,9.38,9.38,0,0,0,0-1.59C4.26,5.5,4.29,5.5,4.91,5Z"/><path d="M9,7.7a1.28,1.28,0,0,1-.15.71.33.33,0,0,1-.52,0,.88.88,0,0,1-.1-.27c-.14-.76-.27-1.51-.39-2.27A.57.57,0,0,1,8,5.33c.13-.11.25-.25.44-.18a.44.44,0,0,1,.22.31A17.91,17.91,0,0,1,9,7.7Z"/></g></g></svg>