<svg id="Pattern" xmlns="http://www.w3.org/2000/svg" xmlns:xlink="http://www.w3.org/1999/xlink" viewBox="0 0 1200 1200"><defs><style>.cls-1{fill:none;}.cls-2{fill:#fff;}.cls-3{fill:#fffaf8;}.cls-4{fill:url(#New_Pattern_4);}</style><pattern id="New_Pattern_4" data-name="New Pattern 4" width="1200" height="1200" patternTransform="translate(-625 -213)" patternUnits="userSpaceOnUse" viewBox="0 0 1200 1200"><rect class="cls-1" width="1200" height="1200"/><path class="cls-2" d="M568.83,1173.33c13-5.82,25.73-11.44,37.93-17.4q9.18-4.44,17.9-9.25t17-10.12c2.76-1.75,5.39-3.63,8.07-5.47s5.23-3.81,7.71-5.84,5-4.06,7.43-6.16l7.43-6.88c2.53-2.26,4.87-4.7,7.27-7.09s4.86-4.74,7.11-7.28l6.9-7.5,6.61-7.78a333.86,333.86,0,0,0,24.28-33c.92-1.44,1.91-2.84,2.78-4.32l2.66-4.4,2.65-4.4,1.32-2.21,1.24-2.26,5-9c1.58-3.05,3.07-6.15,4.61-9.22a338.47,338.47,0,0,0,26.9-77.87c.35-1.69.77-3.35,1.06-5.06l.9-5.13,1.76-10.26c.57-3.42,1.21-6.84,1.55-10.3s.83-6.89,1.22-10.35l.58-5.17c.18-1.73.44-3.45.52-5.19l.67-10.4.64-10.4c.11-3.48.1-7,.15-10.44a496.4,496.4,0,0,0-5.9-83.12,634.64,634.64,0,0,0-18.48-81.28c-7.8-26.68-17.05-52.89-27-78.79l-3.82-9.68c-1.27-3.23-2.49-6.47-3.85-9.68l-7.9-19.21c-2.57-6.17-5.39-12.4-8.17-18.68l-8.65-19.08C685.11,507.91,673,480.91,664,451.1a293.12,293.12,0,0,1-10.34-46.81c-.26-2.05-.47-4.11-.7-6.17l-.34-3.09-.23-3.13-.42-6.26-.2-6.33c-.09-2.1-.07-4.24,0-6.37s0-4.25.12-6.4c.23-4.29.4-8.57.91-12.89s1.09-8.6,1.75-12.9c.33-2.15.83-4.28,1.25-6.42s.85-4.28,1.43-6.4l1.64-6.35c.58-2.11,1.27-4.19,1.92-6.28,1.23-4.18,3-8.26,4.52-12.37l1.21-3.06c.39-1,.89-2,1.34-3l2.77-5.91L672,288c.47-1,1-1.89,1.52-2.83l3.11-5.62a227.06,227.06,0,0,1,13.74-21c4.85-6.63,10-12.84,15.22-18.79,1.29-1.53,2.62-2.95,3.95-4.38l4-4.3c1.31-1.45,2.66-2.81,4-4.17l4.05-4.09q8.11-8.07,16.27-15.56t16.22-14.58l15.86-14c5.18-4.63,10.25-9.16,15.31-13.86s10-9.41,15-14.12c2.48-2.38,4.9-4.8,7.35-7.2s4.88-4.82,7.27-7.26,4.87-4.84,7.18-7.33l7.08-7.43,6.92-7.53c2.33-2.5,4.5-5.1,6.79-7.63,9-10.24,17.59-20.74,25.69-31.58a387.33,387.33,0,0,0,22.57-33.61c3.47-5.79,6.68-11.69,9.78-17.68s5.92-12.11,8.48-18.34c.75-1.7,1.43-3.42,2.09-5.14h-59.8Q841,19.29,828.92,37.71c-10,15.1-19.08,27.75-28.72,39.8A464.47,464.47,0,0,1,767,114.37c-19.13,19.11-38.78,36.06-57.77,52.46q-5.7,4.9-11.28,9.75c-6.21,5.35-11.59,10.06-16.47,14.38l-3.9,3.51-3.83,3.5c-1.8,1.6-3.55,3.28-5.24,4.91L666.28,205c-9.49,9.12-19.07,19.14-28.46,29.77-9.19,10.42-17.91,21.19-25.9,32s-15.73,22.32-23,34.12c-1.71,2.69-3.33,5.47-4.9,8.15l-3,5.14-5,9c-.51.94-1,1.89-1.5,2.84l-.87,1.68-1.29,2.45c-1.14,2.18-2.31,4.42-3.32,6.51a327.59,327.59,0,0,0-15.35,36.64,402,402,0,0,0-11.44,39.13c-3,12.39-5.81,25.9-8.5,41.29-2.48,14.3-4.66,29.16-6.65,43.09l-4.71,33.73c-.21,1.5-.46,3-.71,4.55l-.45,2.72c-.26,1.62-.54,3.31-.86,5-6.25,34.76-16.79,66.92-31.31,95.54a308.3,308.3,0,0,1-26.86,43.43c-5.09,6.9-10.47,13.55-16,19.78-6,6.83-11.72,12.81-17.38,18.28-6.37,6.17-12.43,11.65-18.51,16.77-1.08.93-2.22,1.85-3.36,2.78l-3.8,3.1-2.41,1.88c-3.17,2.51-6.44,5-9.5,7.31-12.12,9.09-25.23,18.16-39,27-26.89,17.18-54.2,32.31-79.72,46.11l-39.47,21.3c-14.8,8-27,14.89-38.52,21.52C181.87,875,169,882.35,156.5,889.46c-13.09,7.46-26.62,15.18-39.78,22.86C86.12,930.16,63,944.56,41.65,959,26.11,969.55,12.41,979.53,0,989.39V1200H55.24c.62-4.92,1.3-9.84,2.08-14.76A436.84,436.84,0,0,1,73.83,1117c3.73-11.22,7.85-22.39,12.55-33.36,1.18-2.74,2.35-5.48,3.61-8.19s2.49-5.43,3.78-8.13,2.65-5.37,4-8.06l3.87-7.51.51-1,.25-.5.3-.55,1.22-2.23c.82-1.46,1.65-2.93,2.5-4.36,1.7-2.89,3.46-5.68,5.25-8.42,3.58-5.44,7.3-10.64,11.06-15.5,1.88-2.45,3.75-4.8,5.62-7.13l1.4-1.73.65-.79.4-.51.87-1.09.71-.92,1.41-1.66c3.75-4.26,6.93-7.09,8.45-8.64s1.47-1.76.8-1.1a.07.07,0,0,1-.12,0,.09.09,0,0,1,0-.12l4-4c6.31-6.45,12.92-12.57,19.62-18.52s13.65-11.56,20.68-16.94a480.59,480.59,0,0,1,43.3-29.33c29.39-17.68,58.77-32.55,87.31-47.51,28.76-15,56.3-29.37,81.76-46.88a326.52,326.52,0,0,0,36.6-29c2.91-2.68,5.76-5.44,8.61-8.25l4.12-4.08c.72-.7,1.21-1.29,1.91-2.07l2.06-2.35c5.43-6.28,10.79-12.34,15.7-18.91l.05-.07a4.12,4.12,0,0,1,7.39,3,107.76,107.76,0,0,1-2.51,12.93c-.53,2.12-1.08,4.23-1.67,6.31L470,795.94l-.92,3c-.33,1-.74,2.27-1.16,3.29-.85,2.1-1.74,4.33-2.57,6.3l-1.28,3-1.36,3c-.9,2-1.89,4-2.84,6s-2,4-3,5.92-2.11,3.9-3.22,5.82c-2.19,3.86-4.48,7.69-6.9,11.43A259.8,259.8,0,0,1,431,865.45,344.17,344.17,0,0,1,394.58,904c-6.44,5.9-13,11.56-19.63,17.06L365,929.1,355,937c-26.8,20.74-54.12,39.41-79.79,57.86-25.58,18.27-49.65,36.07-72.12,55.34a85.09,85.09,0,0,1-7.17,6.66c-2.52,2-3.42,2.76-3.33,2.48a1,1,0,0,0,.07-.15l-.59.63-1.85,1.92-1.67,1.7-1.3,1.28c-1.72,1.71-3.42,3.41-5,5.08-3.24,3.36-6.25,6.62-9.05,9.88-1.38,1.63-2.73,3.26-4,4.89-.64.81-1.26,1.63-1.87,2.45l-.9,1.22-.23.31-.26.38-.52.77-4.39,6.41c-1.32,2-2.7,4-4,6q-3.94,6.11-7.56,12.42c-1.22,2.09-2.37,4.23-3.55,6.36s-2.29,4.29-3.36,6.47c-2.23,4.34-4.29,8.77-6.27,13.24A321.75,321.75,0,0,0,117.8,1197c-.24,1-.46,2-.69,3h78.21a563,563,0,0,1,66.42-81c19-19.24,38.9-36.82,58.42-54.23s38.8-34.44,57.26-51.53,36.13-34.13,52.71-51.3c8.28-8.59,16.32-17.2,24-25.94l5.72-6.57,5.59-6.63c1.79-2.22,3.56-4.45,5.39-6.65l5.27-6.75a402.54,402.54,0,0,0,37.26-58.14c5.4-10.33,10.47-20.93,15.07-31.84s8.87-22.06,12.74-33.47A580.55,580.55,0,0,0,560,714.71l.94-4.61.88-4.64.87-4.65.79-4.67c1.15-6.23,2.09-12.51,3.08-18.84,1.91-12.66,3.56-25.49,5.32-38.55v0a4.12,4.12,0,0,1,7.94-.89,303,303,0,0,1,11.37,38.41c.83,3.26,1.43,6.54,2.12,9.83s1.29,6.6,1.87,9.91l.83,5,.74,5,.73,5c.23,1.68.41,3.35.61,5a374.55,374.55,0,0,1,.62,82A367.39,367.39,0,0,1,592,839.2a361.85,361.85,0,0,1-11.56,40.6,351.68,351.68,0,0,1-37.64,76.57c-2,3-4,5.94-6,8.88s-4.22,5.79-6.33,8.69-4.34,5.61-6.54,8.39-4.47,5.47-6.75,8.16a396.89,396.89,0,0,1-28.83,30.32c-20,19-41.38,35.65-62.72,51.19s-42.71,30.11-63.21,45.08-40.17,30.33-58.61,46.46c-9.16,8-18,16.36-26.57,25-3.77,3.74-7.45,7.58-11.09,11.46h73.43c5.53-6.8,11.15-13.41,17.49-20.11a284.23,284.23,0,0,1,20.61-19.72c7.16-6.24,14.65-12.06,22.27-17.56s15.42-10.6,23.26-15.39c15.7-9.6,31.54-18,47-26l11.51-5.94,5.7-2.93,2.82-1.47,2.53-1.35c6.74-3.6,13.34-7.45,19.74-11.6a286.46,286.46,0,0,0,36.23-27.65,296.19,296.19,0,0,0,31.24-32.66c4.77-5.78,9.25-11.78,13.56-17.86,2.16-3,4.21-6.15,6.24-9.26s3.83-6.13,5.61-9.28c14.39-25.06,24.86-52.5,32.22-81.64s11.43-60,12.59-91.55c.59-15.8.48-31.78-.2-47.87-.33-8-.86-16.11-1.47-24.21a184.07,184.07,0,0,0-3.19-23.49c-2.91-15.47-7-31.21-11.59-47.11s-9.76-32-14.93-48.28-10.34-32.83-14.95-49.69a497.08,497.08,0,0,1-11.57-51.56c-.74-4.37-1.36-8.77-1.94-13.17s-1-8.84-1.33-13.28a250.05,250.05,0,0,1-.82-26.68,198.34,198.34,0,0,1,7.89-52.31,4,4,0,0,1,7.88,1.34v.05a224.39,224.39,0,0,0,.14,25c.28,4.13.61,8.25,1.14,12.35.23,2.05.54,4.09.8,6.13s.62,4.07,1,6.1c1.44,8.1,3.19,16.12,5.33,24.06s4.59,15.78,7.27,23.57c10.81,31.16,25.41,61.17,40,92,7.31,15.42,14.69,31.06,21.62,47.24,3.47,8.09,6.84,16.3,10,24.71s6.16,17,8.83,25.78,4.92,18,7.44,26.52q1.82,6.51,3.43,13.08c1.08,4.39,2.12,8.79,3.07,13.22a460.36,460.36,0,0,1,8.48,54,423.17,423.17,0,0,1,1.73,55.5,361.69,361.69,0,0,1-6.35,56.23,306.5,306.5,0,0,1-16.26,55.4,285.56,285.56,0,0,1-12.24,26.58,282,282,0,0,1-15.05,25.28c-2.72,4.09-5.57,8.11-8.5,12s-5.8,7.67-8.82,11.4q-9,11.22-19,21.57a357.47,357.47,0,0,1-42.63,37.92,372.92,372.92,0,0,1-47.69,30.63c-8.3,4.48-16.74,8.68-25.36,12.49l-23.62,10.26c-7.66,3.33-15.16,6.76-22.48,10.23s-14.45,7.06-21.36,10.8A294.36,294.36,0,0,0,425.47,1200h88.66c5-2.79,9.94-5.42,14.89-8C542.49,1185.21,555.8,1179.13,568.83,1173.33Z"/><path class="cls-2" d="M796,1117c5.77-12.53,11.12-25.43,15.89-38.34l.92-2.47,2.51-7.15c1-2.91,2.09-6.27,3.13-9.59.34-1.14.71-2.34,1.08-3.54.62-2,1.26-4.09,1.82-6.13l1.42-5,1.29-4.89c3.34-12.66,6.12-25.78,8.49-40.11,2.18-13.09,3.95-27,5.26-41.4,1.18-12.75,2-26.63,2.55-42.46.47-12.74.67-26.52.64-43.37,0-13.56-.27-27.53-.52-41l0-3.12-1-44.78c-1.24-56.92-2.8-117.52-7-177.56-2.38-32.46-5.2-61.05-8.61-87.39l-.71-5.7c-.24-1.9-.5-4-.72-6.08-.27-2.32-.47-4.27-.63-6.08-.22-2.16-.39-4.16-.54-6.11-.66-8.28-1.05-16.57-1.15-24.61a306.12,306.12,0,0,1,3.38-49.78,258.58,258.58,0,0,1,12.35-49,246.13,246.13,0,0,1,9.82-23.42l1.36-2.81,2.91-5.65,1.54-2.82c.92-1.69,1.95-3.51,3.14-5.53l1.57-2.66.05-.09,1.59-2.54c16.87-27.4,36.94-52,56.06-74.8l5.34-6.35c7.71-9.15,15.69-18.61,23.28-27.88,4.07-5,8.88-10.94,13.57-17.08l3.32-4.33,3.16-4.29c1.67-2.23,3.3-4.54,4.87-6.78l1.35-1.93c1.63-2.34,3.26-4.8,4.84-7.18l1.09-1.65c.67-1.06,1.35-2.12,2-3.18,1.23-1.92,2.49-3.89,3.65-5.85l2.84-4.68,2.68-4.62c1.35-2.27,2.63-4.61,3.87-6.88l1.39-2.54a412.15,412.15,0,0,0,18.41-39A410.41,410.41,0,0,0,1037.24,0H993.38q-1.82,8.13-3.63,16.33v.05a4.09,4.09,0,0,1-8-.05Q980,8.22,978.7,0H938.57c-.62,4.42-1.37,8.84-2.27,13.22-1.42,7.42-3.36,14.71-5.41,22s-4.52,14.41-7.25,21.43a355.32,355.32,0,0,1-18.77,41c-7.06,13.23-14.84,26-23.09,38.4-2.09,3.07-4.13,6.21-6.3,9.21L869,154.32c-4.41,6-8.86,11.9-13.45,17.69q-13.73,17.44-28.48,33.88c-2.47,2.73-4.87,5.51-7.39,8.21s-5,5.44-7.53,8.05q-7.51,7.93-14.88,15.59c-4.91,5.09-9.73,10.12-14.41,15.13s-9.24,9.94-13.59,14.91-8.5,9.92-12.4,14.89L754,286.41l-1.43,1.87c-.48.62-.89,1.25-1.34,1.88l-2.64,3.76-1.33,1.86c-.43.63-.81,1.26-1.21,1.89a142.78,142.78,0,0,0-15.52,30.43c-.84,2.59-1.87,5.08-2.49,7.77-.34,1.32-.77,2.62-1.09,4l-.89,4c-.35,1.33-.53,2.69-.77,4s-.52,2.7-.67,4.07c-.31,2.75-.72,5.47-.85,8.27-1.81,22.2,2.32,46.1,9.12,71s16.44,50.6,25.87,77.66c4.75,13.53,9.4,27.47,13.61,42,1,3.6,1.94,7.08,2.91,10.62L778.16,572c1.89,7.06,3.5,14.22,5.22,21.32,6.67,28.49,12,57.33,16,86.31,2.07,14.47,3.58,29,5,43.56L806.05,745l1.2,21.85a823.09,823.09,0,0,1-.94,87.33,675.74,675.74,0,0,1-11.19,86.56c-.79,3.59-1.47,7.19-2.29,10.77l-2.64,10.68-.65,2.68-.74,2.64-1.49,5.3-1.49,5.3c-.5,1.77-1.1,3.5-1.64,5.25a434.89,434.89,0,0,1-15.06,41.41c-5.6,13.6-12.08,26.85-19,39.88-1.79,3.23-3.51,6.5-5.33,9.72l-5.64,9.56c-1.82,3.23-3.9,6.29-5.87,9.44s-3.93,6.29-6.08,9.32l-6.3,9.21-6.62,9c-2.16,3-4.52,5.92-6.83,8.86s-4.58,5.91-7,8.72l-7.29,8.56c-2.63,2.86-5.24,5.82-8,8.56s-5.54,5.48-8.36,8.19-5.75,5.23-8.71,7.7c-5.87,5-11.91,9.78-18,14.28s-12.32,8.82-18.55,12.92l-1.95,1.28h119q3.56-5.09,7.23-10.6A529.45,529.45,0,0,0,796,1117Z"/><path class="cls-2" d="M1200,0V636.73c-10.09,5.33-20.34,10.69-30.68,16.22-25.46,13.6-51.56,28.25-76.24,46.18a341.55,341.55,0,0,0-35.39,29.44c-5.52,5.42-11,10.91-16,16.77-1.27,1.46-2.57,2.88-3.81,4.37l-3.68,4.49-1.83,2.24c-.6.75-1.15,1.49-1.73,2.24l-3.4,4.49a374.41,374.41,0,0,0-24.76,37.39l-2.8,4.83-2.66,4.9-2.66,4.9c-.86,1.64-1.69,3.3-2.52,5l-2.48,5c-.83,1.65-1.57,3.36-2.36,5-1.55,3.36-3.13,6.7-4.54,10.12s-2.95,6.76-4.23,10.23-2.71,6.84-3.89,10.33l-1.83,5.2c-.62,1.73-1.22,3.46-1.75,5.22-1.07,3.52-2.23,7-3.21,10.52a315.71,315.71,0,0,0-9.33,42.66,4,4,0,0,0,7.71,2.14h0c5.52-13.07,11.54-25.79,18.17-38.08q5-9.21,10.37-18.12c3.59-5.94,7.35-11.75,11.22-17.46,1.87-2.89,3.91-5.68,5.9-8.48,1-1.4,2-2.82,3-4.18l3.12-4.11c1-1.37,2-2.76,3.09-4.11l3.19-4,3.18-4,3.31-3.92q13.2-15.66,27.74-29.83l3.65-3.5c.61-.58,1.21-1.19,1.82-1.75l1.83-1.64,3.63-3.27c1.22-1.08,2.5-2.11,3.74-3.17,5-4.22,10.18-8.17,15.44-12A324.54,324.54,0,0,1,1121.77,744c23.31-12.71,48.37-23.26,74.41-33.77l3.82-1.55V756.5c-10.35,5.82-20.65,11.9-30.82,18.37a442.84,442.84,0,0,0-67.68,52.29,393.44,393.44,0,0,0-29.86,31.74,400,400,0,0,0-26.1,34.87A424,424,0,0,0,1005.17,970a435.68,435.68,0,0,0-31.68,164.64,414.07,414.07,0,0,0,5.21,65.4H938.57a206.15,206.15,0,0,0-2.84-75.5,4,4,0,0,0-8,.65v0a255,255,0,0,1-5.81,41.26c-.35,1.67-.78,3.33-1.21,5s-.82,3.31-1.32,4.95l-1.41,4.9-1.54,4.86c-.5,1.62-1.06,3.22-1.63,4.82s-1.09,3.19-1.7,4.77-1.11,2.86-1.66,4.28h-59.8q12.8-23.07,23.56-47.15c6.53-14.67,12.55-29.78,17.9-44.88l1-2.9,3-8.77c1.13-3.54,2.44-7.67,3.67-11.79l.74-2.56c.89-3,1.8-6.18,2.6-9.29l1.58-6,1.45-5.93A566,566,0,0,0,921.41,965c1-14.38,1.54-29.85,1.72-47.3.11-13.63-.09-28.4-.65-46.5-.44-14.11-1.1-29-2-45.69l-2.54-45c-.84-14.92-1.8-29.84-2.8-45.1-1-14.39-2-29.73-3.25-45.25-2.77-34.64-5.62-63.51-8.95-90.87-3.72-30.72-8.39-61.31-13.88-90.91l-1-5.44c-.32-1.67-.63-3.34-.92-5.05s-.57-3.34-.83-5-.52-3.34-.75-5c-1-6.82-1.69-13.6-2.16-20.16a255.19,255.19,0,0,1,.12-39.94,210.07,210.07,0,0,1,7-38.63,192.62,192.62,0,0,1,6.26-18.51l.91-2.27,1.92-4.52,1-2.26c.59-1.34,1.26-2.77,2.07-4.4l1.08-2.2,1.2-2.3c13-25.13,30-49.73,46.27-72.78l6.78-9.6c6.34-8.94,12.88-18.19,19.22-27.56,3.81-5.63,8.3-12.34,12.72-19.34l3.1-4.92c.76-1.21,1.5-2.46,2.25-3.7l.79-1.33c1.68-2.73,3.27-5.54,4.82-8.25l1.13-2a410.78,410.78,0,0,0,36.11-86.45c2.3-8,4.2-15.41,5.81-22.52,1.94-8.2,3.45-16.49,4.55-22.81a429.9,429.9,0,0,0,5.17-46c.43-8.54.61-17,.54-25.35Zm-5.87,174.56-.33-5.86-.17-2.92-.27-2.92c-.4-3.89-.74-7.77-1.34-11.63l-.87-5.78c-.3-1.92-.68-3.84-1.05-5.75s-.75-3.84-1.14-5.69-.84-3.58-1.27-5.36a268.18,268.18,0,0,0-14-42.75c-.71-1.75-1.56-3.51-2.36-5.25s-1.61-3.47-2.48-5.2l-2.69-5.16c-.45-.85-.9-1.7-1.37-2.55l-1.48-2.53q-1.47-2.53-3-5c-1-1.65-2.15-3.29-3.24-4.91-2.12-3.25-4.6-6.4-7-9.47-.59-.77-1.21-1.53-1.88-2.28l-2-2.23c-1.34-1.46-2.57-3-4-4.33l-4.27-4.11c-.73-.66-1.37-1.36-2.17-2L1133.46,29c-1.56-1.23-3-2.48-4.62-3.61s-3.29-2.19-4.93-3.22c-.83-.51-1.64-1-2.47-1.51s-1.74-.92-2.62-1.34c-1.75-.87-3.48-1.7-5.23-2.44-.15-.06-.3-.1-.45-.15a4,4,0,0,0-6.28,3.77l0,.19c.48,3.9,1.06,7.76,1.37,11.65s.63,7.76.87,11.62a211.4,211.4,0,0,1-.28,23.09,192.08,192.08,0,0,1-2.78,22.66,215.91,215.91,0,0,1-5.17,22c-8.52,29-22.79,55.77-39.51,81.49q-6.27,9.66-12.92,19.21-3.33,4.77-6.73,9.53l-3.33,4.56-3.39,4.5c-9.16,12-19.07,23.9-29.3,36.12s-20.54,24.95-30.55,38.69a302.4,302.4,0,0,0-27.51,45.18,246.52,246.52,0,0,0-10.79,25.85c-1.56,4.48-3,9-4.3,13.6-.66,2.28-1.21,4.58-1.83,6.88s-1.09,4.6-1.63,6.91a260.75,260.75,0,0,0-5.9,55.26,277.71,277.71,0,0,0,5,52.51,388.1,388.1,0,0,0,12.65,48.13l3.82,11.4,3.85,11.07,7.7,21.71c5.08,14.33,10,28.43,14.39,42.58,2.19,7.09,4.26,14.18,6.15,21.35s3.54,14.39,5,21.76,2.6,14.88,3.42,22.6,1.28,15.65,1.56,24v.1a4.22,4.22,0,0,0,1.52,3.1,4.26,4.26,0,0,0,6-.51,113.2,113.2,0,0,0,14.23-21.94,155.66,155.66,0,0,0,9.84-24.6,214.61,214.61,0,0,0,8.69-52,342.93,342.93,0,0,0-1.5-51.36c-.81-8.36-1.88-16.61-3-24.73l-1.88-12.07-2-11.71c-2.67-15.5-5.63-30.41-8.56-44.81s-5.83-28.28-8-41.85-3.5-26.85-3-39.85l.27-4.85c.14-1.6.26-3.22.45-4.82.37-3.19.79-6.37,1.43-9.52a130.66,130.66,0,0,1,5.21-19,240.37,240.37,0,0,1,18.06-38.42c7.26-12.94,15.56-26,24.12-39.39s17.3-27.27,25.49-41.89l3-5.52,3-5.58q2.8-5.4,5.56-10.88c3.67-7.3,7.27-14.69,10.71-22.19a420.33,420.33,0,0,0,18.19-46.46c.27-.84.52-1.69.77-2.54l-.19,2-.29,2.18-.57,4.34c-1.52,11.58-3.43,23-5.44,34.48s-4.13,23-6.65,34.63c-1.23,5.82-2.67,11.64-4.2,17.48-.81,2.92-1.64,5.76-2.51,8.77-1.1,3.47-2.22,6.9-3.29,10.39-2.18,6.94-4.22,14-6.25,21-1,3.55-2,7.07-2.92,10.64l-1.44,5.34-1.35,5.38a357.29,357.29,0,0,0-8.26,44c-.41,3.75-.84,7.48-1.08,11.26-.13,1.89-.3,3.76-.4,5.65l-.26,5.67c-.1,1.88-.12,3.78-.15,5.68s-.08,3.77-.06,5.69c.1,3.83.07,7.69.33,11.46,1.69,30.42,8.67,58.13,15.07,84.53,6.56,26.46,12.67,51.7,14.2,77.59.13,1.62.19,3.23.24,4.84l.16,4.84,0,4.83c0,1.61,0,3.24-.1,4.83l-.22,4.83c-.08,1.62-.27,3.2-.41,4.81-.22,3.23-.75,6.39-1.19,9.59a124.24,124.24,0,0,1-11.81,37.06l-.09.16a4,4,0,0,0,6.71,4.32A117.83,117.83,0,0,0,1105,634c1.89-3.07,3.39-6.32,5-9.55.82-1.62,1.46-3.29,2.19-5s1.5-3.31,2.07-5a186.07,186.07,0,0,0,10.29-42,291.73,291.73,0,0,0,2.31-42.93c-.22-14.24-1.16-28.18-2.07-41.85s-1.95-27.05-2.31-40.05c-.23-6.51-.28-12.88-.18-19.19.12-3.11.13-6.27.37-9.32l.28-4.61.44-4.53c.2-3,.67-6,1-8.93.19-1.48.46-3,.69-4.49s.44-3,.75-4.48c1-6,2.44-11.92,3.9-17.84s3.18-11.82,5.13-17.68c.91-2.93,2-5.86,3-8.78s2.13-5.82,3.29-8.72c2.27-5.8,4.79-11.57,7.49-17.27s5.62-11.34,8.75-16.94c1.51-2.8,3.16-5.58,4.74-8.37,1.77-3.26,3.63-6.67,5.39-10s3.47-6.83,5.09-10.31l2.38-5.25,1.19-2.64,1.11-2.66a220,220,0,0,0,13.45-44.42A206.06,206.06,0,0,0,1194.13,174.56Z"/><path class="cls-2" d="M1132.79,913.2q-12.36,13-23.83,27.06a484.52,484.52,0,0,0-41.63,60A559,559,0,0,0,1034,1067q-7.29,17.46-13.6,35.57c-2.16,6-4.11,12.13-6.13,18.25l-2.86,9.24c-1,3.09-1.83,6.21-2.77,9.32q-5.4,18.69-10.06,37.93c-1.8,7.5-3.5,15.06-5.2,22.67h43.86a419.49,419.49,0,0,0,3-47.56h0a5.29,5.29,0,0,1,10.53-.68c1.23,9,2.16,18.33,2.75,27.62.41,6.75.64,13.64.7,20.62H1200V989.39c-9.77,7.75-18.74,15.41-27.2,23.21a363.63,363.63,0,0,0-30.12,31.08c-4.76,5.59-9.26,11.29-13.37,16.92s-7.92,11.42-11.89,18a203.86,203.86,0,0,0-18.35,39,177.92,177.92,0,0,0-5.87,20.93c-.34,1.57-.67,3.12-1,4.68a5.24,5.24,0,0,1-5.17,4.29,4.87,4.87,0,0,1-.66,0,5.22,5.22,0,0,1-4.64-5.49,182.7,182.7,0,0,1,3.54-28.13,214,214,0,0,1,14.41-44.48c3-6.85,6.5-13.7,10.57-20.95,3.74-6.61,7.89-13.32,12.32-19.93,4.11-6.18,8.61-12.38,13.74-19s10-12.46,14.89-18A536.68,536.68,0,0,1,1200,943.25V852.64c-14.45,11.45-28.32,23.17-41.54,35.35C1149.62,896.17,1141,904.5,1132.79,913.2Z"/><path class="cls-2" d="M91.38,872.77c16.1-11.27,32.5-22.4,48.37-33.15,8.55-5.8,17.39-11.79,26-17.69,6.48-4.43,12.91-8.73,19.1-12.79,5.78-3.79,11.87-7.72,19.16-12.38,12.25-7.83,24.64-15.6,36.62-23.12l1.51-1c25.2-15.89,49.76-31.57,73.07-48.51,12.48-9,23.46-17.58,33.56-26.08,2.55-2.16,5.28-4.47,7.93-6.83l3.82-3.41c.49-.46,1-.92,1.53-1.39.73-.66,1.46-1.32,2.17-2,4.62-4.3,9.24-8.93,14.14-14.17a241,241,0,0,0,43.2-64.53,257.91,257.91,0,0,0,13.25-36.66,303.88,303.88,0,0,0,8.07-39c.21-1.31.37-2.58.53-3.84l.34-2.62c.15-1.16.3-2.32.42-3.5l1.13-10.68L447.64,487c1.75-16.59,3.6-31.62,5.65-46,2.52-17.46,5.23-32.83,8.26-47a486.58,486.58,0,0,1,12.66-47.43A392.87,392.87,0,0,1,492.57,300c1.35-2.93,2.75-5.73,4.1-8.44L498,288.9l.94-1.88c.6-1.21,1.2-2.42,1.83-3.61l5.67-10.7,3.12-5.59c1.91-3.41,3.89-6.95,6-10.38a547.67,547.67,0,0,1,56.66-79c10.18-11.87,21.38-23.8,33.29-35.46l2.41-2.34c2.07-2,4.22-4.11,6.42-6.11l8.83-8.12c5.18-4.67,10.66-9.54,17.25-15.32q5.4-4.73,10.74-9.35c19.18-16.66,37.3-32.4,53.62-48.82a378.81,378.81,0,0,0,27-29.84C737,15.91,742.59,8.4,748.45,0h-119c-11.79,7.76-23.63,14.91-35.17,21.92C569.93,36.63,546.87,50.81,528,67c-4.69,4.07-9.14,8.19-13.37,12.49L508,86.39c-2.15,2.35-4.23,4.76-6.35,7.13a332.09,332.09,0,0,0-23.31,30.35c-14.51,21.17-26.76,44.34-37.64,68.86-21.84,49-38.13,103.35-61.39,158.27-2.9,6.87-6,13.72-9.1,20.59l-4.83,10.28-5.09,10.24-10.59,20c-3.68,6.59-7.51,13.09-11.28,19.64s-7.93,12.85-11.93,19.26L325,453.41l-1.58,2.36-3.16,4.7-6.34,9.4c-2.09,3.15-4.37,6.17-6.58,9.23l-6.69,9.16c-2.19,3.08-4.53,6.05-6.86,9l-7,8.91A637.87,637.87,0,0,1,154.68,629.85c-3.11,2.16-6.18,4.34-9.31,6.46l-9.52,6.16-9.51,6.14-9.74,5.78-9.74,5.76c-3.31,1.89-6.72,3.79-10.1,5.61-6.77,3.6-13.56,7.09-20.35,10.33-13.59,6.56-27.15,12.46-40.55,18-6.72,2.8-13.37,5.5-20,8.19L0,708.71V756.5c13.79-7.75,27.69-15,41.53-22,24.25-12.27,48.36-23.85,71.92-35.77s46.69-23.91,69.13-36.59,44.2-26,64.76-40.72c10.28-7.36,20.37-15,29.88-22.95q7.17-6,14-12.35t13.39-13a342,342,0,0,0,46.42-58.56,318.13,318.13,0,0,0,32.27-67.83c4.08-12.14,7.81-24.79,11.53-37.47s7.37-25.48,11.19-38.26c7.62-25.56,15.54-51.18,25-76.4,4.79-12.58,10-25.07,16-37.24s12.85-24.12,22-34.63a4,4,0,0,1,6.32,4.9l0,.06A116.13,116.13,0,0,0,466,244.34c-2.74,5.82-5.14,11.84-7.36,17.94-4.41,12.22-8.05,24.78-11.31,37.46-6.61,25.35-11.76,51.19-16.66,77.18l-7.31,39.13c-2.5,13.11-5,26.25-8.11,39.64-.78,3.36-1.62,6.73-2.53,10.15q-.69,2.6-1.43,5.08c-.49,1.68-.94,3.36-1.47,5-2,6.69-4.26,13.31-6.66,19.88s-5,13.08-7.85,19.51-5.77,12.79-9,19A384.5,384.5,0,0,1,340,604.73q-6.74,8.14-13.9,15.91c-4.76,5.18-9.64,10.27-14.66,15.2s-10.17,9.82-15.34,14.45-10.43,9.25-15.79,13.67a736.69,736.69,0,0,1-66.66,48.91c-22.83,15-46,28.91-68.9,42.61S99.3,782.87,77.56,797.07,34.89,825.88,15,841Q7.4,846.78,0,852.64v90.61q8.75-7.69,18.24-15.51C38.86,910.75,62.1,893.28,91.38,872.77Z"/><path class="cls-2" d="M104.64,119.32c-.33,21,.14,42.25.79,63.63.35,11,.8,22,1.29,33.12l1.38-7.48,2.06-9.74A574.53,574.53,0,0,1,195.32,0H117.11A480.56,480.56,0,0,0,108,57C105.91,77.48,105,98.29,104.64,119.32Z"/><path class="cls-2" d="M59.74,602.62c2.75-1.81,5.43-3.56,8.17-5.42l8.21-5.76,8.21-5.75,8-6,8-6c2.63-2.06,5.2-4.18,7.81-6.27A667.19,667.19,0,0,0,219.59,453.31l6-8c2-2.64,4.07-5.27,6-8l5.8-8.14c1.93-2.72,3.92-5.39,5.72-8.19l5.59-8.29,2.8-4.14,1.39-2.08,1.33-2.12,5.33-8.46,2.69-4.22c.89-1.41,1.8-2.81,2.63-4.25,3.39-5.75,6.84-11.46,10.19-17.24l9.76-17.49q9.33-17.38,17.89-35.82c11.49-24.53,22.19-50.27,33.36-76.62s22.8-53.33,36.46-80.15,29.4-53.43,48.51-78.18a352.45,352.45,0,0,1,31.17-35.25c2.85-2.72,5.66-5.47,8.55-8.14l8.83-7.83c6.26-5.31,12.73-10.31,19.3-14.92S502.14,7,508.85,3q2.64-1.54,5.28-3H425.47q-4.71,3.32-9.23,6.83c-5.95,4.65-11.69,9.53-17.15,14.75-1.36,1.3-2.73,2.61-4.06,4s-2.69,2.73-4.06,4.16-2.74,2.83-4.08,4.29-2.71,2.88-4,4.36a399.48,399.48,0,0,0-29.82,37.31q-7,9.8-13.37,20.06c-4.29,6.82-8.46,13.75-12.45,20.81-8,14.12-15.28,28.7-22,43.62s-12.85,30.18-18.43,45.7c-1.38,3.89-2.76,7.78-4.08,11.69l-4.13,12.21q-4.21,12.3-8.67,24.53-17.81,48.89-40.1,96-11.18,23.52-23.7,46.36C197.76,411.82,189,427,179.24,441.52a394,394,0,0,1-31.91,42,259,259,0,0,1-38.77,36.3,181,181,0,0,1-46.69,25.5,158,158,0,0,1-25.62,6.92A159.65,159.65,0,0,1,10,554.7a4,4,0,0,1-.53-8h.05A152.19,152.19,0,0,0,33.92,542a145.46,145.46,0,0,0,23-8.56A168,168,0,0,0,97.5,506.23a239.84,239.84,0,0,0,32.85-36.46,370.82,370.82,0,0,0,26.51-41.84c4-7.28,7.8-14.67,11.49-22.14,1.84-3.74,3.66-7.47,5.41-11.29s3.58-7.57,5.27-11.41c6.92-15.26,13.34-30.74,19.43-46.36,12.17-31.24,22.68-63.13,32-95.34q3.48-12.09,6.72-24.24l3.23-12.28c1.11-4.25,2.28-8.5,3.47-12.74,4.81-16.95,10.25-33.78,16.48-50.39,12.49-33.2,27.78-65.73,47-96.39A455,455,0,0,1,338.84.9l.73-.9H266.14q-7.06,7.55-13.86,15.37c-4,4.59-7.91,9.34-11.82,14.07s-7.64,9.59-11.33,14.5c-7.43,9.78-14.59,19.81-21.33,30.13a553.89,553.89,0,0,0-64.5,133.69,535.78,535.78,0,0,0-18.23,72.84c-.55,3.12-1.11,6.06-1.62,9.59s-1.16,6.72-1.84,10q-2.06,9.91-4.73,19.53a384,384,0,0,1-12.6,37.7c-9.66,24.58-21.63,48.26-36.62,70a241,241,0,0,1-25,30.79,166.29,166.29,0,0,1-30.62,25.24A4,4,0,0,1,6.58,478a4.36,4.36,0,0,1,.48-.65h0q6.06-6.56,11.67-13.41t10.71-14a221.49,221.49,0,0,0,17.8-30c10.28-20.75,17.12-43,22.59-65.87l-.28,1c1.24-7.56,2.65-15,3.88-22.18l.45-2.65.15-1c0-.28,0-.33,0-.66.11-1.44.17-3,.22-4.76.11-3.49.16-7.65.73-12.41l-.19,1.74c0-10.44-.36-20.82-1.21-31-.42-5.1-1-10.14-1.67-15.12l-1.17-7.74-1.17-8.13c-3.14-21.35-6.25-42.82-9.11-64.49s-5.29-43.55-7-65.7S51,76.37,51.44,53.71A510.79,510.79,0,0,1,55.24,0H0V636.73c14.76-7.8,29.15-15.54,42.83-23.68C48.62,609.67,54.22,606.16,59.74,602.62Z"/><path class="cls-3" d="M116.72,912.32c13.16-7.68,26.69-15.4,39.78-22.86,12.48-7.11,25.37-14.47,38.09-21.87,11.48-6.63,23.72-13.47,38.52-21.52l39.47-21.3c25.52-13.8,52.83-28.93,79.72-46.11,13.74-8.8,26.85-17.87,39-27,3.06-2.31,6.33-4.8,9.5-7.31l2.41-1.88,3.8-3.1c1.14-.93,2.28-1.85,3.36-2.78,6.08-5.12,12.14-10.6,18.51-16.77,5.66-5.47,11.34-11.45,17.38-18.28,5.51-6.23,10.89-12.88,16-19.78a308.3,308.3,0,0,0,26.86-43.43c14.52-28.62,25.06-60.78,31.31-95.54.32-1.68.6-3.37.86-5l.45-2.72c.25-1.53.5-3,.71-4.55l4.71-33.73c2-13.93,4.17-28.79,6.65-43.09,2.69-15.39,5.47-28.9,8.5-41.29a402,402,0,0,1,11.44-39.13,327.59,327.59,0,0,1,15.35-36.64c1-2.09,2.18-4.33,3.32-6.51l1.29-2.45.87-1.68c.49-.95,1-1.9,1.5-2.84l5-9,3-5.14c1.57-2.68,3.19-5.46,4.9-8.15,7.27-11.8,15-23.28,23-34.12s16.71-21.59,25.9-32c9.39-10.63,19-20.65,28.46-29.77l2.27-2.16c1.69-1.63,3.44-3.31,5.24-4.91l3.83-3.5,3.9-3.51c4.88-4.32,10.26-9,16.47-14.38q5.58-4.86,11.28-9.75c19-16.4,38.64-33.35,57.77-52.46A464.47,464.47,0,0,0,800.2,77.51c9.64-12.05,18.76-24.7,28.72-39.8Q841,19.32,851.68,0H748.45C742.59,8.4,737,15.91,731.76,22.39a378.81,378.81,0,0,1-27,29.84c-16.32,16.42-34.44,32.16-53.62,48.82q-5.33,4.64-10.74,9.35c-6.59,5.78-12.07,10.65-17.25,15.32l-8.83,8.12c-2.2,2-4.35,4.09-6.42,6.11l-2.41,2.34c-11.91,11.66-23.11,23.59-33.29,35.46a547.67,547.67,0,0,0-56.66,79c-2.08,3.43-4.06,7-6,10.38l-3.12,5.59-5.67,10.7c-.63,1.19-1.23,2.4-1.83,3.61L498,288.9l-1.31,2.62c-1.35,2.71-2.75,5.51-4.1,8.44a392.87,392.87,0,0,0-18.36,46.66,486.58,486.58,0,0,0-12.66,47.43c-3,14.15-5.74,29.52-8.26,47-2.05,14.33-3.9,29.36-5.65,46l-2.34,22.51-1.13,10.68c-.12,1.18-.27,2.34-.42,3.5l-.34,2.62c-.16,1.26-.32,2.53-.53,3.84a303.88,303.88,0,0,1-8.07,39,257.91,257.91,0,0,1-13.25,36.66,241,241,0,0,1-43.2,64.53c-4.9,5.24-9.52,9.87-14.14,14.17-.71.67-1.44,1.33-2.17,2-.52.47-1,.93-1.53,1.39l-3.82,3.41c-2.65,2.36-5.38,4.67-7.93,6.83-10.1,8.5-21.08,17-33.56,26.08-23.31,16.94-47.87,32.62-73.07,48.51l-1.51,1c-12,7.52-24.37,15.29-36.62,23.12-7.29,4.66-13.38,8.59-19.16,12.38-6.19,4.06-12.62,8.36-19.1,12.79-8.61,5.9-17.45,11.89-26,17.69-15.87,10.75-32.27,21.88-48.37,33.15-29.28,20.51-52.52,38-73.14,55Q8.73,935.57,0,943.25v46.14c12.41-9.86,26.11-19.84,41.65-30.4C63,944.56,86.12,930.16,116.72,912.32Z"/><path class="cls-3" d="M1151.23,991.56c-4.87,5.51-9.74,11.39-14.89,18s-9.63,12.77-13.74,19c-4.43,6.61-8.58,13.32-12.32,19.93-4.07,7.25-7.52,14.1-10.57,20.95a214,214,0,0,0-14.41,44.48,182.7,182.7,0,0,0-3.54,28.13,5.22,5.22,0,0,0,4.64,5.49,4.87,4.87,0,0,0,.66,0,5.24,5.24,0,0,0,5.17-4.29c.3-1.56.63-3.11,1-4.68a177.92,177.92,0,0,1,5.87-20.93,203.86,203.86,0,0,1,18.35-39c4-6.56,7.86-12.44,11.89-18s8.61-11.33,13.37-16.92a363.63,363.63,0,0,1,30.12-31.08c8.46-7.8,17.43-15.46,27.2-23.21V943.25A536.68,536.68,0,0,0,1151.23,991.56Z"/><path class="cls-3" d="M1101.5,827.16a393.44,393.44,0,0,0-29.86,31.74,400,400,0,0,0-26.1,34.87A424,424,0,0,0,1005.17,970a435.68,435.68,0,0,0-31.68,164.64,414.07,414.07,0,0,0,5.21,65.4h14.68c1.7-7.61,3.4-15.17,5.2-22.67q4.67-19.23,10.06-37.93c.94-3.11,1.81-6.23,2.77-9.32l2.86-9.24c2-6.12,4-12.23,6.13-18.25q6.33-18.1,13.6-35.57a559,559,0,0,1,33.33-66.8,484.52,484.52,0,0,1,41.63-60q11.43-14,23.83-27.06c8.22-8.7,16.83-17,25.67-25.21,13.22-12.18,27.09-23.9,41.54-35.35V756.5c-10.35,5.82-20.65,11.9-30.82,18.37A442.84,442.84,0,0,0,1101.5,827.16Z"/><path class="cls-3" d="M1093.08,699.13a341.55,341.55,0,0,0-35.39,29.44c-5.52,5.42-11,10.91-16,16.77-1.27,1.46-2.57,2.88-3.81,4.37l-3.68,4.49-1.83,2.24c-.6.75-1.15,1.49-1.73,2.24l-3.4,4.49a374.41,374.41,0,0,0-24.76,37.39l-2.8,4.83-2.66,4.9-2.66,4.9c-.86,1.64-1.69,3.3-2.52,5l-2.48,5c-.83,1.65-1.57,3.36-2.36,5-1.55,3.36-3.13,6.7-4.54,10.12s-2.95,6.76-4.23,10.23-2.71,6.84-3.89,10.33l-1.83,5.2c-.62,1.73-1.22,3.46-1.75,5.22-1.07,3.52-2.23,7-3.21,10.52a315.71,315.71,0,0,0-9.33,42.66,4,4,0,0,0,7.71,2.14h0c5.52-13.07,11.54-25.79,18.17-38.08q5-9.21,10.37-18.12c3.59-5.94,7.35-11.75,11.22-17.46,1.87-2.89,3.91-5.68,5.9-8.48,1-1.4,2-2.82,3-4.18l3.12-4.11c1-1.37,2-2.76,3.09-4.11l3.19-4,3.18-4,3.31-3.92q13.2-15.66,27.74-29.83l3.65-3.5c.61-.58,1.21-1.19,1.82-1.75l1.83-1.64,3.63-3.27c1.22-1.08,2.5-2.11,3.74-3.17,5-4.22,10.18-8.17,15.44-12A324.54,324.54,0,0,1,1121.77,744c23.31-12.71,48.37-23.26,74.41-33.77l3.82-1.55v-72c-10.09,5.33-20.34,10.69-30.68,16.22C1143.86,666.55,1117.76,681.2,1093.08,699.13Z"/><path class="cls-3" d="M893.14,1108l1-2.9,3-8.77c1.13-3.54,2.44-7.67,3.67-11.79l.74-2.56c.89-3,1.8-6.18,2.6-9.29l1.58-6,1.45-5.93A566,566,0,0,0,921.41,965c1-14.38,1.54-29.85,1.72-47.3.11-13.63-.09-28.4-.65-46.5-.44-14.11-1.1-29-2-45.69l-2.54-45c-.84-14.92-1.8-29.84-2.8-45.1-1-14.39-2-29.73-3.25-45.25-2.77-34.64-5.62-63.51-8.95-90.87-3.72-30.72-8.39-61.31-13.88-90.91l-1-5.44c-.32-1.67-.63-3.34-.92-5.05s-.57-3.34-.83-5-.52-3.34-.75-5c-1-6.82-1.69-13.6-2.16-20.16a255.19,255.19,0,0,1,.12-39.94,210.07,210.07,0,0,1,7-38.63,192.62,192.62,0,0,1,6.26-18.51l.91-2.27,1.92-4.52,1-2.26c.59-1.34,1.26-2.77,2.07-4.4l1.08-2.2,1.2-2.3c13-25.13,30-49.73,46.27-72.78l6.78-9.6c6.34-8.94,12.88-18.19,19.22-27.56,3.81-5.63,8.3-12.34,12.72-19.34l3.1-4.92c.76-1.21,1.5-2.46,2.25-3.7l.79-1.33c1.68-2.73,3.27-5.54,4.82-8.25l1.13-2a410.78,410.78,0,0,0,36.11-86.45c2.3-8,4.2-15.41,5.81-22.52,1.94-8.2,3.45-16.49,4.55-22.81a429.9,429.9,0,0,0,5.17-46c.43-8.54.61-17,.54-25.35h-17a410.41,410.41,0,0,1-27.7,106.74,412.15,412.15,0,0,1-18.41,39l-1.39,2.54c-1.24,2.27-2.52,4.61-3.87,6.88l-2.68,4.62-2.84,4.68c-1.16,2-2.42,3.93-3.65,5.85-.68,1.06-1.36,2.12-2,3.18l-1.09,1.65c-1.58,2.38-3.21,4.84-4.84,7.18l-1.35,1.93c-1.57,2.24-3.2,4.55-4.87,6.78l-3.16,4.29L956,199.67c-4.69,6.14-9.5,12.09-13.57,17.08-7.59,9.27-15.57,18.73-23.28,27.88L913.85,251c-19.12,22.82-39.19,47.4-56.06,74.8l-1.59,2.54-.05.09-1.57,2.66c-1.19,2-2.22,3.84-3.14,5.53l-1.54,2.82L847,345.07l-1.36,2.81a246.13,246.13,0,0,0-9.82,23.42,258.58,258.58,0,0,0-12.35,49,306.12,306.12,0,0,0-3.38,49.78c.1,8,.49,16.33,1.15,24.61.15,2,.32,4,.54,6.11.16,1.81.36,3.76.63,6.08.22,2.12.48,4.18.72,6.08l.71,5.7c3.41,26.34,6.23,54.93,8.61,87.39,4.22,60,5.78,120.64,7,177.56l1,44.78,0,3.12c.25,13.51.5,27.48.52,41,0,16.85-.17,30.63-.64,43.37-.54,15.83-1.37,29.71-2.55,42.46-1.31,14.38-3.08,28.31-5.26,41.4-2.37,14.33-5.15,27.45-8.49,40.11l-1.29,4.89-1.42,5c-.56,2-1.2,4.12-1.82,6.13-.37,1.2-.74,2.4-1.08,3.54-1,3.32-2.16,6.68-3.13,9.59l-2.51,7.15-.92,2.47c-4.77,12.91-10.12,25.81-15.89,38.34a529.45,529.45,0,0,1-40.34,72.4q-3.67,5.52-7.23,10.6H851.68q12.8-23.07,23.56-47.15C881.77,1138.18,887.79,1123.07,893.14,1108Z"/><path class="cls-3" d="M1050.77,1151.76a5.29,5.29,0,0,0-10.53.68h0a419.49,419.49,0,0,1-3,47.56h17c-.06-7-.29-13.87-.7-20.62C1052.93,1170.09,1052,1160.79,1050.77,1151.76Z"/><path class="cls-3" d="M77.56,797.07c21.74-14.2,44.26-27.91,67.17-41.59s46.07-27.61,68.9-42.61A736.69,736.69,0,0,0,280.29,664c5.36-4.42,10.61-9,15.79-13.67s10.33-9.53,15.34-14.45,9.9-10,14.66-15.2,9.41-10.48,13.9-15.91a384.5,384.5,0,0,0,46.37-70.36c3.22-6.24,6.18-12.61,9-19s5.44-12.93,7.85-19.51,4.66-13.19,6.66-19.88c.53-1.67,1-3.35,1.47-5s1-3.35,1.43-5.08c.91-3.42,1.75-6.79,2.53-10.15,3.09-13.39,5.61-26.53,8.11-39.64l7.31-39.13c4.9-26,10.05-51.83,16.66-77.18,3.26-12.68,6.9-25.24,11.31-37.46,2.22-6.1,4.62-12.12,7.36-17.94a116.13,116.13,0,0,1,9.33-16.71l0-.06a4,4,0,0,0-6.32-4.9c-9.18,10.51-16,22.49-22,34.63s-11.21,24.66-16,37.24c-9.46,25.22-17.38,50.84-25,76.4-3.82,12.78-7.5,25.56-11.19,38.26s-7.45,25.33-11.53,37.47a318.13,318.13,0,0,1-32.27,67.83,342,342,0,0,1-46.42,58.56q-6.51,6.69-13.39,13t-14,12.35c-9.51,8-19.6,15.59-29.88,22.95-20.56,14.72-42.33,28-64.76,40.72S137,686.79,113.45,698.7s-47.67,23.5-71.92,35.77c-13.84,7-27.74,14.28-41.53,22v96.14Q7.4,846.78,15,841C34.89,825.88,55.82,811.25,77.56,797.07Z"/><path class="cls-3" d="M35.86,694.13c13.4-5.58,27-11.48,40.55-18,6.79-3.24,13.58-6.73,20.35-10.33,3.38-1.82,6.79-3.72,10.1-5.61l9.74-5.76,9.74-5.78,9.51-6.14,9.52-6.16c3.13-2.12,6.2-4.3,9.31-6.46A637.87,637.87,0,0,0,286.77,506.2l7-8.91c2.33-3,4.67-6,6.86-9l6.69-9.16c2.21-3.06,4.49-6.08,6.58-9.23l6.34-9.4,3.16-4.7,1.58-2.36,1.51-2.39c4-6.41,8.08-12.77,11.93-19.26s7.6-13.05,11.28-19.64l10.59-20,5.09-10.24,4.83-10.28c3.13-6.87,6.2-13.72,9.1-20.59,23.26-54.92,39.55-109.23,61.39-158.27,10.88-24.52,23.13-47.69,37.64-68.86a332.09,332.09,0,0,1,23.31-30.35c2.12-2.37,4.2-4.78,6.35-7.13l6.58-6.92c4.23-4.3,8.68-8.42,13.37-12.49,18.89-16.17,41.95-30.35,66.31-45.06,11.54-7,23.38-14.16,35.17-21.92H514.13q-2.64,1.49-5.28,3c-6.71,4-13.39,8.18-20,12.76s-13,9.61-19.3,14.92l-8.83,7.83c-2.89,2.67-5.7,5.42-8.55,8.14A352.45,352.45,0,0,0,421,81.93c-19.11,24.75-34.86,51.4-48.51,78.18s-25.28,53.81-36.46,80.15-21.87,52.09-33.36,76.62q-8.58,18.42-17.89,35.82L275,370.19c-3.35,5.78-6.8,11.49-10.19,17.24-.83,1.44-1.74,2.84-2.63,4.25l-2.69,4.22-5.33,8.46-1.33,2.12-1.39,2.08-2.8,4.14L243.09,421c-1.8,2.8-3.79,5.47-5.72,8.19l-5.8,8.14c-1.89,2.74-3.94,5.37-6,8l-6,8A667.19,667.19,0,0,1,108.17,567.4c-2.61,2.09-5.18,4.21-7.81,6.27l-8,6-8,6-8.21,5.75-8.21,5.76c-2.74,1.86-5.42,3.61-8.17,5.42-5.52,3.54-11.12,7-16.91,10.43C29.15,621.19,14.76,628.93,0,636.73v72l15.87-6.39C22.49,699.63,29.14,696.93,35.86,694.13Z"/><path class="cls-3" d="M307.31,45.35c-19.19,30.66-34.48,63.19-47,96.39-6.23,16.61-11.67,33.44-16.48,50.39-1.19,4.24-2.36,8.49-3.47,12.74l-3.23,12.28q-3.24,12.15-6.72,24.24c-9.3,32.21-19.81,64.1-32,95.34-6.09,15.62-12.51,31.1-19.43,46.36-1.69,3.84-3.51,7.6-5.27,11.41s-3.57,7.55-5.41,11.29c-3.69,7.47-7.5,14.86-11.49,22.14a370.82,370.82,0,0,1-26.51,41.84A239.84,239.84,0,0,1,97.5,506.23,168,168,0,0,1,57,533.44a145.46,145.46,0,0,1-23,8.56,152.19,152.19,0,0,1-24.36,4.72H9.51a4,4,0,0,0,.53,8,159.65,159.65,0,0,0,26.21-2.45,158,158,0,0,0,25.62-6.92,181,181,0,0,0,46.69-25.5,259,259,0,0,0,38.77-36.3,394,394,0,0,0,31.91-42c9.75-14.57,18.52-29.7,26.86-44.88s16.25-30.68,23.7-46.36q22.33-47,40.1-96,4.46-12.22,8.67-24.53l4.13-12.21c1.32-3.91,2.7-7.8,4.08-11.69,5.58-15.52,11.76-30.76,18.43-45.7s14.05-29.5,22-43.62c4-7.06,8.16-14,12.45-20.81s8.73-13.53,13.37-20.06a399.48,399.48,0,0,1,29.82-37.31c1.31-1.48,2.68-2.91,4-4.36s2.71-2.87,4.08-4.29,2.73-2.86,4.06-4.16,2.7-2.66,4.06-4c5.46-5.22,11.2-10.1,17.15-14.75q4.51-3.51,9.23-6.83h-85.9l-.73.9A455,455,0,0,0,307.31,45.35Z"/><path class="cls-3" d="M53.52,120.94c1.68,22.15,4.11,44,7,65.7s6,43.14,9.11,64.49l1.17,8.13L71.94,267c.71,5,1.25,10,1.67,15.12.85,10.18,1.18,20.56,1.21,31l.19-1.74c-.57,4.76-.62,8.92-.73,12.41,0,1.74-.11,3.32-.22,4.76,0,.33,0,.38,0,.66l-.15,1-.45,2.65c-1.23,7.22-2.64,14.62-3.88,22.18l.28-1c-5.47,22.84-12.31,45.12-22.59,65.87a221.49,221.49,0,0,1-17.8,30q-5.07,7.17-10.71,14T7.07,477.3h0a4.36,4.36,0,0,0-.48.65,4,4,0,0,0,5.49,5.56,166.29,166.29,0,0,0,30.62-25.24,241,241,0,0,0,25-30.79c15-21.78,27-45.46,36.62-70a384,384,0,0,0,12.6-37.7q2.67-9.63,4.73-19.53c.68-3.31,1.3-6.65,1.84-10s1.07-6.47,1.62-9.59a535.78,535.78,0,0,1,18.23-72.84A553.89,553.89,0,0,1,207.8,74.07c6.74-10.32,13.9-20.35,21.33-30.13,3.69-4.91,7.54-9.69,11.33-14.5s7.78-9.48,11.82-14.07Q259.08,7.56,266.14,0H195.32a574.53,574.53,0,0,0-85.16,198.85l-2.06,9.74-1.38,7.48c-.49-11.08-.94-22.11-1.29-33.12-.65-21.38-1.12-42.61-.79-63.63S105.91,77.48,108,57a480.56,480.56,0,0,1,9.13-57H55.24a510.79,510.79,0,0,0-3.8,53.71C51,76.37,51.78,98.8,53.52,120.94Z"/><path class="cls-3" d="M650,1185.8c6.13-4.5,12.17-9.25,18-14.28,3-2.47,5.83-5.11,8.71-7.7s5.66-5.35,8.36-8.19,5.38-5.7,8-8.56l7.29-8.56c2.47-2.81,4.73-5.79,7-8.72s4.67-5.82,6.83-8.86l6.62-9,6.3-9.21c2.15-3,4.09-6.2,6.08-9.32s4-6.21,5.87-9.44l5.64-9.56c1.82-3.22,3.54-6.49,5.33-9.72,6.95-13,13.43-26.28,19-39.88a434.89,434.89,0,0,0,15.06-41.41c.54-1.75,1.14-3.48,1.64-5.25l1.49-5.3,1.49-5.3.74-2.64.65-2.68,2.64-10.68c.82-3.58,1.5-7.18,2.29-10.77a675.74,675.74,0,0,0,11.19-86.56,823.09,823.09,0,0,0,.94-87.33L806.05,745,804.3,723.2c-1.39-14.53-2.9-29.09-5-43.56-4-29-9.28-57.82-16-86.31-1.72-7.1-3.33-14.26-5.22-21.32l-2.84-10.59c-1-3.54-1.87-7-2.91-10.62-4.21-14.49-8.86-28.43-13.61-42-9.43-27.06-19-52.77-25.87-77.66s-10.93-48.77-9.12-71c.13-2.8.54-5.52.85-8.27.15-1.37.46-2.71.67-4.07s.42-2.71.77-4l.89-4c.32-1.34.75-2.64,1.09-4,.62-2.69,1.65-5.18,2.49-7.77a142.78,142.78,0,0,1,15.52-30.43c.4-.63.78-1.26,1.21-1.89l1.33-1.86,2.64-3.76c.45-.63.86-1.26,1.34-1.88l1.43-1.87,2.86-3.74c3.9-5,8.06-9.92,12.4-14.89s8.9-9.93,13.59-14.91,9.5-10,14.41-15.13,9.87-10.3,14.88-15.59c2.49-2.61,5-5.37,7.53-8.05s4.92-5.48,7.39-8.21Q841.86,189.5,855.58,172c4.59-5.79,9-11.74,13.45-17.69l6.45-9.09c2.17-3,4.21-6.14,6.3-9.21,8.25-12.39,16-25.17,23.09-38.4a355.32,355.32,0,0,0,18.77-41c2.73-7,5.05-14.23,7.25-21.43s4-14.57,5.41-22c.9-4.38,1.65-8.8,2.27-13.22H911.48c-.66,1.72-1.34,3.44-2.09,5.14-2.56,6.23-5.48,12.32-8.48,18.34s-6.31,11.89-9.78,17.68a387.33,387.33,0,0,1-22.57,33.61c-8.1,10.84-16.71,21.34-25.69,31.58-2.29,2.53-4.46,5.13-6.79,7.63l-6.92,7.53-7.08,7.43c-2.31,2.49-4.79,4.89-7.18,7.33s-4.8,4.87-7.27,7.26-4.87,4.82-7.35,7.2c-5,4.71-9.92,9.49-15,14.12s-10.13,9.23-15.31,13.86l-15.86,14q-8,7.13-16.22,14.58T721.6,222.84l-4.05,4.09c-1.35,1.36-2.7,2.72-4,4.17l-4,4.3c-1.33,1.43-2.66,2.85-3.95,4.38-5.22,5.95-10.37,12.16-15.22,18.79a227.06,227.06,0,0,0-13.74,21l-3.11,5.62c-.51.94-1,1.86-1.52,2.83l-1.4,2.94-2.77,5.91c-.45,1-1,1.94-1.34,3l-1.21,3.06c-1.56,4.11-3.29,8.19-4.52,12.37-.65,2.09-1.34,4.17-1.92,6.28l-1.64,6.35c-.58,2.12-1,4.26-1.43,6.4s-.92,4.27-1.25,6.42c-.66,4.3-1.37,8.6-1.75,12.9s-.68,8.6-.91,12.89c-.11,2.15-.08,4.27-.12,6.4s0,4.27,0,6.37l.2,6.33.42,6.26.23,3.13.34,3.09c.23,2.06.44,4.12.7,6.17A293.12,293.12,0,0,0,664,451.1c9,29.81,21.08,56.81,32.75,82.54l8.65,19.08c2.78,6.28,5.6,12.51,8.17,18.68l7.9,19.21c1.36,3.21,2.58,6.45,3.85,9.68l3.82,9.68c10,25.9,19.24,52.11,27,78.79A634.64,634.64,0,0,1,774.69,770a496.4,496.4,0,0,1,5.9,83.12c-.05,3.48,0,7-.15,10.44L779.8,874l-.67,10.4c-.08,1.74-.34,3.46-.52,5.19l-.58,5.17c-.39,3.46-.79,6.91-1.22,10.35s-1,6.88-1.55,10.3l-1.76,10.26-.9,5.13c-.29,1.71-.71,3.37-1.06,5.06a338.47,338.47,0,0,1-26.9,77.87c-1.54,3.07-3,6.17-4.61,9.22l-5,9-1.24,2.26-1.32,2.21-2.65,4.4-2.66,4.4c-.87,1.48-1.86,2.88-2.78,4.32a333.86,333.86,0,0,1-24.28,33l-6.61,7.78-6.9,7.5c-2.25,2.54-4.73,4.88-7.11,7.28s-4.74,4.83-7.27,7.09l-7.43,6.88c-2.47,2.1-4.86,4.2-7.43,6.16s-5.13,3.91-7.71,5.84-5.31,3.72-8.07,5.47q-8.21,5.34-17,10.12t-17.9,9.25c-12.2,6-24.91,11.58-37.93,17.4S542.49,1185.21,529,1192c-4.95,2.56-9.93,5.19-14.89,8H629.46l1.95-1.28Q640.76,1192.57,650,1185.8Z"/><path class="cls-3" d="M935.73,1124.5a4,4,0,0,0-8,.65v0a255,255,0,0,1-5.81,41.26c-.35,1.67-.78,3.33-1.21,5s-.82,3.31-1.32,4.95l-1.41,4.9-1.54,4.86c-.5,1.62-1.06,3.22-1.63,4.82s-1.09,3.19-1.7,4.77-1.11,2.86-1.66,4.28h27.09A206.15,206.15,0,0,0,935.73,1124.5Z"/><path class="cls-3" d="M476.24,1171.12c7.32-3.47,14.82-6.9,22.48-10.23l23.62-10.26c8.62-3.81,17.06-8,25.36-12.49a372.92,372.92,0,0,0,47.69-30.63A357.47,357.47,0,0,0,638,1069.59q9.91-10.35,19-21.57c3-3.73,5.94-7.55,8.82-11.4s5.78-8,8.5-12a282,282,0,0,0,15.05-25.28,285.56,285.56,0,0,0,12.24-26.58,306.5,306.5,0,0,0,16.26-55.4,361.69,361.69,0,0,0,6.35-56.23,423.17,423.17,0,0,0-1.73-55.5,460.36,460.36,0,0,0-8.48-54c-1-4.43-2-8.83-3.07-13.22s-2.22-8.74-3.43-13.08c-2.52-8.48-4.7-17.79-7.44-26.52s-5.66-17.38-8.83-25.78-6.52-16.62-10-24.71c-6.93-16.18-14.31-31.82-21.62-47.24-14.61-30.84-29.21-60.85-40-92q-4-11.68-7.27-23.57c-2.14-7.94-3.89-16-5.33-24.06-.36-2-.66-4.06-1-6.1s-.57-4.08-.8-6.13c-.53-4.1-.86-8.22-1.14-12.35a224.39,224.39,0,0,1-.14-25v-.05a4,4,0,0,0-7.88-1.34,198.34,198.34,0,0,0-7.89,52.31A250.05,250.05,0,0,0,589,489.4c.33,4.44.82,8.86,1.33,13.28s1.2,8.8,1.94,13.17a497.08,497.08,0,0,0,11.57,51.56c4.61,16.86,9.8,33.39,14.95,49.69s10.31,32.38,14.93,48.28,8.68,31.64,11.59,47.11A184.07,184.07,0,0,1,648.49,736c.61,8.1,1.14,16.17,1.47,24.21.68,16.09.79,32.07.2,47.87-1.16,31.58-5.22,62.42-12.59,91.55s-17.83,56.58-32.22,81.64c-1.78,3.15-3.71,6.2-5.61,9.28s-4.08,6.22-6.24,9.26c-4.31,6.08-8.79,12.08-13.56,17.86a296.19,296.19,0,0,1-31.24,32.66A286.46,286.46,0,0,1,512.47,1078c-6.4,4.15-13,8-19.74,11.6l-2.53,1.35-2.82,1.47-5.7,2.93-11.51,5.94c-15.43,8-31.27,16.37-47,26-7.84,4.79-15.63,9.92-23.26,15.39s-15.11,11.32-22.27,17.56a284.23,284.23,0,0,0-20.61,19.72c-6.34,6.7-12,13.31-17.49,20.11h85.9a294.36,294.36,0,0,1,29.41-18.08Q465.25,1176.31,476.24,1171.12Z"/><path class="cls-3" d="M136.29,1140.61c2-4.47,4-8.9,6.27-13.24,1.07-2.18,2.25-4.32,3.36-6.47s2.33-4.27,3.55-6.36q3.63-6.32,7.56-12.42c1.29-2,2.67-4,4-6l4.39-6.41.52-.77.26-.38.23-.31.9-1.22c.61-.82,1.23-1.64,1.87-2.45,1.27-1.63,2.62-3.26,4-4.89,2.8-3.26,5.81-6.52,9.05-9.88,1.61-1.67,3.31-3.37,5-5.08l1.3-1.28,1.67-1.7,1.85-1.92.59-.63a1,1,0,0,1-.07.15c-.09.28.81-.44,3.33-2.48a85.09,85.09,0,0,0,7.17-6.66c22.47-19.27,46.54-37.07,72.12-55.34,25.67-18.45,53-37.12,79.79-57.86l10-7.86L375,921c6.62-5.5,13.19-11.16,19.63-17.06A344.17,344.17,0,0,0,431,865.45a259.8,259.8,0,0,0,15.66-21.68c2.42-3.74,4.71-7.57,6.9-11.43,1.11-1.92,2.17-3.87,3.22-5.82s2-3.95,3-5.92,1.94-4,2.84-6l1.36-3,1.28-3c.83-2,1.72-4.2,2.57-6.3.42-1,.83-2.29,1.16-3.29l.92-3,1.84-6.17c.59-2.08,1.14-4.19,1.67-6.31A107.76,107.76,0,0,0,476,770.53a4.12,4.12,0,0,0-7.39-3l-.05.07c-4.91,6.57-10.27,12.63-15.7,18.91l-2.06,2.35c-.7.78-1.19,1.37-1.91,2.07L444.74,795c-2.85,2.81-5.7,5.57-8.61,8.25a326.52,326.52,0,0,1-36.6,29c-25.46,17.51-53,31.83-81.76,46.88-28.54,15-57.92,29.83-87.31,47.51A480.59,480.59,0,0,0,187.16,956q-10.54,8.07-20.68,16.94c-6.7,6-13.31,12.07-19.62,18.52l-4,4a.09.09,0,0,0,0,.12.07.07,0,0,0,.12,0c.67-.66.74-.43-.8,1.1s-4.7,4.38-8.45,8.64l-1.41,1.66-.71.92-.87,1.09-.4.51-.65.79-1.4,1.73c-1.87,2.33-3.74,4.68-5.62,7.13-3.76,4.86-7.48,10.06-11.06,15.5-1.79,2.74-3.55,5.53-5.25,8.42-.85,1.43-1.68,2.9-2.5,4.36l-1.22,2.23-.3.55-.25.5-.51,1-3.87,7.51c-1.32,2.69-2.69,5.35-4,8.06s-2.56,5.4-3.78,8.13-2.43,5.45-3.61,8.19c-4.7,11-8.82,22.14-12.55,33.36a436.84,436.84,0,0,0-16.51,68.27c-.78,4.92-1.46,9.84-2.08,14.76h61.87c.23-1,.45-2,.69-3A321.75,321.75,0,0,1,136.29,1140.61Z"/><path class="cls-3" d="M303.8,1163.54c18.44-16.13,38.09-31.53,58.61-46.46s41.86-29.54,63.21-45.08,42.68-32.17,62.72-51.19a396.89,396.89,0,0,0,28.83-30.32c2.28-2.69,4.53-5.42,6.75-8.16s4.39-5.57,6.54-8.39,4.25-5.77,6.33-8.69,4.05-5.91,6-8.88a351.68,351.68,0,0,0,37.64-76.57A361.85,361.85,0,0,0,592,839.2,367.39,367.39,0,0,0,598.7,798a374.55,374.55,0,0,0-.62-82c-.2-1.68-.38-3.35-.61-5l-.73-5-.74-5-.83-5c-.58-3.31-1.18-6.62-1.87-9.91s-1.29-6.57-2.12-9.83a303,303,0,0,0-11.37-38.41,4.12,4.12,0,0,0-7.94.89v0c-1.76,13.06-3.41,25.89-5.32,38.55-1,6.33-1.93,12.61-3.08,18.84l-.79,4.67-.87,4.65-.88,4.64-.94,4.61a580.55,580.55,0,0,1-18.8,71.21c-3.87,11.41-8.08,22.59-12.74,33.47s-9.67,21.51-15.07,31.84a402.54,402.54,0,0,1-37.26,58.14l-5.27,6.75c-1.83,2.2-3.6,4.43-5.39,6.65l-5.59,6.63L454.15,936c-7.7,8.74-15.74,17.35-24,25.94-16.58,17.17-34.25,34.21-52.71,51.3s-37.71,34.17-57.26,51.53-39.44,35-58.42,54.23a563,563,0,0,0-66.42,81h70.82c3.64-3.88,7.32-7.72,11.09-11.46C285.83,1179.9,294.64,1171.51,303.8,1163.54Z"/><path class="cls-3" d="M984.85,19.48a4.1,4.1,0,0,0,4.89-3.1v-.05q1.83-8.2,3.63-16.33H978.7q1.34,8.21,3,16.33A4.08,4.08,0,0,0,984.85,19.48Z"/><path class="cls-3" d="M1193.8,168.7l-.17-2.92-.27-2.92c-.4-3.89-.74-7.77-1.34-11.63l-.87-5.78c-.3-1.92-.68-3.84-1.05-5.75s-.75-3.84-1.14-5.69-.84-3.58-1.27-5.36a268.18,268.18,0,0,0-14-42.75c-.71-1.75-1.56-3.51-2.36-5.25s-1.61-3.47-2.48-5.2l-2.69-5.16c-.45-.85-.9-1.7-1.37-2.55l-1.48-2.53q-1.47-2.53-3-5c-1-1.65-2.15-3.29-3.24-4.91-2.12-3.25-4.6-6.4-7-9.47-.59-.77-1.21-1.53-1.88-2.28l-2-2.23c-1.34-1.46-2.57-3-4-4.33l-4.27-4.11c-.73-.66-1.37-1.36-2.17-2L1133.46,29c-1.56-1.23-3-2.48-4.62-3.61s-3.29-2.19-4.93-3.22c-.83-.51-1.64-1-2.47-1.51s-1.74-.92-2.62-1.34c-1.75-.87-3.48-1.7-5.23-2.44-.15-.06-.3-.1-.45-.15a4,4,0,0,0-6.28,3.77l0,.19c.48,3.9,1.06,7.76,1.37,11.65s.63,7.76.87,11.62a211.4,211.4,0,0,1-.28,23.09,192.08,192.08,0,0,1-2.78,22.66,215.91,215.91,0,0,1-5.17,22c-8.52,29-22.79,55.77-39.51,81.49q-6.27,9.66-12.92,19.21-3.33,4.77-6.73,9.53l-3.33,4.56-3.39,4.5c-9.16,12-19.07,23.9-29.3,36.12s-20.54,24.95-30.55,38.69a302.4,302.4,0,0,0-27.51,45.18,246.52,246.52,0,0,0-10.79,25.85c-1.56,4.48-3,9-4.3,13.6-.66,2.28-1.21,4.58-1.83,6.88s-1.09,4.6-1.63,6.91a260.75,260.75,0,0,0-5.9,55.26,277.71,277.71,0,0,0,5,52.51,388.1,388.1,0,0,0,12.65,48.13l3.82,11.4,3.85,11.07,7.7,21.71c5.08,14.33,10,28.43,14.39,42.58,2.19,7.09,4.26,14.18,6.15,21.35s3.54,14.39,5,21.76,2.6,14.88,3.42,22.6,1.28,15.65,1.56,24v.1a4.22,4.22,0,0,0,1.52,3.1,4.26,4.26,0,0,0,6-.51,113.2,113.2,0,0,0,14.23-21.94,155.66,155.66,0,0,0,9.84-24.6,214.61,214.61,0,0,0,8.69-52,342.93,342.93,0,0,0-1.5-51.36c-.81-8.36-1.88-16.61-3-24.73l-1.88-12.07-2-11.71c-2.67-15.5-5.63-30.41-8.56-44.81s-5.83-28.28-8-41.85-3.5-26.85-3-39.85l.27-4.85c.14-1.6.26-3.22.45-4.82.37-3.19.79-6.37,1.43-9.52a130.66,130.66,0,0,1,5.21-19,240.37,240.37,0,0,1,18.06-38.42c7.26-12.94,15.56-26,24.12-39.39s17.3-27.27,25.49-41.89l3-5.52,3-5.58q2.8-5.4,5.56-10.88c3.67-7.3,7.27-14.69,10.71-22.19a420.33,420.33,0,0,0,18.19-46.46c.27-.84.52-1.69.77-2.54l-.19,2-.29,2.18-.57,4.34c-1.52,11.58-3.43,23-5.44,34.48s-4.13,23-6.65,34.63c-1.23,5.82-2.67,11.64-4.2,17.48-.81,2.92-1.64,5.76-2.51,8.77-1.1,3.47-2.22,6.9-3.29,10.39-2.18,6.94-4.22,14-6.25,21-1,3.55-2,7.07-2.92,10.64l-1.44,5.34-1.35,5.38a357.29,357.29,0,0,0-8.26,44c-.41,3.75-.84,7.48-1.08,11.26-.13,1.89-.3,3.76-.4,5.65l-.26,5.67c-.1,1.88-.12,3.78-.15,5.68s-.08,3.77-.06,5.69c.1,3.83.07,7.69.33,11.46,1.69,30.42,8.67,58.13,15.07,84.53,6.56,26.46,12.67,51.7,14.2,77.59.13,1.62.19,3.23.24,4.84l.16,4.84,0,4.83c0,1.61,0,3.24-.1,4.83l-.22,4.83c-.08,1.62-.27,3.2-.41,4.81-.22,3.23-.75,6.39-1.19,9.59a124.24,124.24,0,0,1-11.81,37.06l-.09.16a4,4,0,0,0,6.71,4.32A117.83,117.83,0,0,0,1105,634c1.89-3.07,3.39-6.32,5-9.55.82-1.62,1.46-3.29,2.19-5s1.5-3.31,2.07-5a186.07,186.07,0,0,0,10.29-42,291.73,291.73,0,0,0,2.31-42.93c-.22-14.24-1.16-28.18-2.07-41.85s-1.95-27.05-2.31-40.05c-.23-6.51-.28-12.88-.18-19.19.12-3.11.13-6.27.37-9.32l.28-4.61.44-4.53c.2-3,.67-6,1-8.93.19-1.48.46-3,.69-4.49s.44-3,.75-4.48c1-6,2.44-11.92,3.9-17.84s3.18-11.82,5.13-17.68c.91-2.93,2-5.86,3-8.78s2.13-5.82,3.29-8.72c2.27-5.8,4.79-11.57,7.49-17.27s5.62-11.34,8.75-16.94c1.51-2.8,3.16-5.58,4.74-8.37,1.77-3.26,3.63-6.67,5.39-10s3.47-6.83,5.09-10.31l2.38-5.25,1.19-2.64,1.11-2.66a220,220,0,0,0,13.45-44.42,206.06,206.06,0,0,0,3.34-46.61Z"/></pattern></defs><rect class="cls-4" width="1200" height="1200"/></svg>