<svg xmlns="http://www.w3.org/2000/svg" viewBox="0 0 14.57 7.11"><defs><style>.cls-1{fill:#1d1d1b;}</style></defs><g id="Layer_2" data-name="Layer 2"><g id="Layer_1-2" data-name="Layer 1"><path class="cls-1" d="M10.62,6.89A5.45,5.45,0,0,1,12.06,5c.6-.53,1.23-1,1.84-1.53a6.44,6.44,0,0,0,.56-.48.41.41,0,0,0-.17-.67c-.14-.06-.3-.08-.44-.13-.95-.34-1.91-.68-2.85-1A4,4,0,0,0,9.61.66.74.74,0,0,1,9,.22C8.91.12,8.94,0,8.73,0a.51.51,0,0,0,0,.8,4.64,4.64,0,0,0,1,.69c.8.37,1.64.69,2.46,1l.81.33c-.18.23-.3.4-.44.56a2.34,2.34,0,0,1-.4.37,20.86,20.86,0,0,0-1.91,1.85,1.71,1.71,0,0,0-.32.44c-.13.24-.33.51-.11.77S10.31,7,10.62,6.89Z"/><path class="cls-1" d="M5.71,6.63A8.64,8.64,0,0,0,3.85,5C3.16,4.46,2.43,4,1.72,3.58c0-.09,0-.17.06-.21a4.79,4.79,0,0,1,.47-.43c.45-.36.92-.72,1.38-1.07a.56.56,0,0,0,.15-.81,3.28,3.28,0,0,0-1.23.6A14,14,0,0,1,.23,3.31.68.68,0,0,0,0,3.77a.37.37,0,0,0,.35.37,3.53,3.53,0,0,1,1.3.45c.54.34,1.1.67,1.61,1.06s1,.85,1.45,1.27c.27.25.39.25.72,0A3.23,3.23,0,0,0,5.71,6.63Z"/><path class="cls-1" d="M5.67.48c-.08,0-.19-.18-.3-.19A.34.34,0,0,0,5,.61a.3.3,0,0,0,.26.33C5.46,1,5.66.77,5.67.48Z"/><path class="cls-1" d="M4.54.6l0-.07L4.39.6a.36.36,0,0,0,0,.07Z"/></g></g></svg>