<svg xmlns="http://www.w3.org/2000/svg" viewBox="0 0 13.12 15.91"><defs><style>.cls-1{fill:#1d1d1b;}</style></defs><g id="Layer_2" data-name="Layer 2"><g id="Layer_1-2" data-name="Layer 1"><path class="cls-1" d="M6.57,1.33c.21.13.34.17.41.26.64.74,1.32,1.46,1.9,2.25A30.93,30.93,0,0,0,11.7,7.47a6.42,6.42,0,0,1,.42.6,3.8,3.8,0,0,0,.42.47.34.34,0,0,0,.5,0,.32.32,0,0,0,0-.42c-.26-.3-.54-.59-.79-.9q-1.11-1.35-2.19-2.73c-.77-1-1.51-2-2.3-3A3.39,3.39,0,0,1,7,.34S7,.29,7,.26A.47.47,0,0,0,6.17.17a5.06,5.06,0,0,0-.58.94A17.29,17.29,0,0,1,1.33,6.94a2.13,2.13,0,0,0-.26.26,2,2,0,0,0-.15.29.53.53,0,0,0,.78.06,9.08,9.08,0,0,0,2.18-2A26.63,26.63,0,0,0,6.14,2C6.25,1.79,6.4,1.6,6.57,1.33Z"/><path class="cls-1" d="M10.05,11.83h.06c0-.33,0-.67,0-1A5.71,5.71,0,0,0,10,10c0-.24-.28-.43-.45-.38s-.24.26-.25.44a26.08,26.08,0,0,0,.15,5.15l.06.36c0,.2.14.35.36.35a.38.38,0,0,0,.39-.33,2.82,2.82,0,0,0,0-.82C10.24,13.78,10.14,12.81,10.05,11.83Z"/><path class="cls-1" d="M5.56,14.48a4.64,4.64,0,0,1-.41-1c-.16-1.12-.27-2.24-.42-3.36a2.58,2.58,0,0,0-.25-.77.33.33,0,0,0-.3-.15.46.46,0,0,0-.28.2.67.67,0,0,0-.09.34,1.45,1.45,0,0,0,.25.87.85.85,0,0,1,.16.5,14.36,14.36,0,0,0,.27,3.46A2.46,2.46,0,0,0,4.6,15a.36.36,0,0,0,.65.1A3.4,3.4,0,0,0,5.56,14.48Z"/><path class="cls-1" d="M.54,7.84c-.38.08-.53.22-.54.49a.19.19,0,0,0,.09.14.21.21,0,0,0,.16,0C.34,8.29.41,8.11.54,7.84Z"/></g></g></svg>