<svg xmlns="http://www.w3.org/2000/svg" viewBox="0 0 6.79 12.81"><defs><style>.cls-1{fill:#1d1d1b;}</style></defs><g id="Layer_2" data-name="Layer 2"><g id="Layer_1-2" data-name="Layer 1"><path class="cls-1" d="M3.51,0c-.37.07-.86.13-1.34.26S1.6.64,1.7,1.1a24.93,24.93,0,0,1,.47,2.72c.1.94.28,1.88.44,2.82,0,.3.12.6.17.9.1.66,0,.9-.62,1.16l-.51.2a2.86,2.86,0,0,0-1.27,1,1.55,1.55,0,0,0,.43,2.38,5.18,5.18,0,0,0,.91.46.63.63,0,0,0,.52,0,8.14,8.14,0,0,0,1.23-1,2,2,0,0,0,.66-2.08,7.82,7.82,0,0,1-.29-1.91A4.69,4.69,0,0,0,3.7,7c-.43-1.7-.56-3.45-.85-5.17A.64.64,0,0,1,3.49,1a2.61,2.61,0,0,1,1.81.52,1.3,1.3,0,0,1,.58,1.1A3.91,3.91,0,0,1,5.81,4a1.65,1.65,0,0,0,0,.73.35.35,0,0,0,.23.23.44.44,0,0,0,.31-.14.68.68,0,0,0,.16-.33c.09-.67.18-1.34.24-2a1.74,1.74,0,0,0-.49-1.34A3.89,3.89,0,0,0,3.51,0Z"/></g></g></svg>