<svg xmlns="http://www.w3.org/2000/svg" viewBox="0 0 8.35 16.06"><defs><style>.cls-1{fill:#1d1d1b;}</style></defs><g id="Layer_2" data-name="Layer 2"><g id="Layer_1-2" data-name="Layer 1"><path class="cls-1" d="M1.69,12.15a3.05,3.05,0,0,1-.59-1.43.35.35,0,0,0-.21-.26.37.37,0,0,0-.31.15,4,4,0,0,0-.35.93A10.21,10.21,0,0,0,.05,13.1c0,.83,0,1.66,0,2.49A.45.45,0,0,0,.27,16a.46.46,0,0,0,.56-.2c.15-.2.29-.4.42-.61a16.88,16.88,0,0,1,2.62-3.09,2.48,2.48,0,0,0,.76-1.43A6.43,6.43,0,0,1,4.9,9.53c.71-1.8,1.44-3.59,2.18-5.39.41-1,.86-2,1.27-3L7.91.07c-.13,0-.25,0-.3.06a1.42,1.42,0,0,1-1.3.28A10.38,10.38,0,0,1,4.24,0a.54.54,0,0,0-.4.13.36.36,0,0,0,.06.5A1.59,1.59,0,0,0,4.54,1c.9.14,1.81.23,2.72.35a3.42,3.42,0,0,1,.48.11c-.23.25-.41.42-.56.61a2.66,2.66,0,0,0-.41.6c-.46,1-.9,2-1.32,3.05S4.55,7.92,4.11,9c-.12.28-.19.59-.53.77A3,3,0,0,1,2,9c0-.32,0-.66.12-1A5.37,5.37,0,0,1,2.5,7c.59-1.28,1.2-2.56,1.8-3.84.09-.19.19-.38.28-.58s.19-.51-.06-.76.05-.2.13-.29,0-.14.07-.32a1.29,1.29,0,0,0-.85.75c-.12.25-.21.51-.32.76Q2.32,5.43,1.1,8.16c-.14.31-.26.63-.62.77a.57.57,0,0,0-.34.51.42.42,0,0,0,.08.34c.25.16.53.28.8.42.57-.16,1.06.24,1.61.22a.82.82,0,0,1,.64.32.6.6,0,0,1,0,.9,4.88,4.88,0,0,1-.55.51Z"/></g></g></svg>