<svg xmlns="http://www.w3.org/2000/svg" viewBox="0 0 12.19 14.13"><g id="Layer_2" data-name="Layer 2"><g id="Layer_1-2" data-name="Layer 1"><path d="M1,7.09A3.9,3.9,0,0,1,.85,8.57a.46.46,0,0,1-.19.22c-.14,0-.25-.06-.33-.17A1.53,1.53,0,0,1,0,7.49,12.81,12.81,0,0,1,1.31,3,5.7,5.7,0,0,1,7.3.09a5,5,0,0,1,3.26,2,8,8,0,0,1,1.63,5.14,6.22,6.22,0,0,1-.61,2.2,2.16,2.16,0,0,0-.27,1.34.93.93,0,0,1-.36.89,10.74,10.74,0,0,1-2,1.53,2,2,0,0,1-.66.22,10.19,10.19,0,0,0-2.71.69l-.09,0a4.71,4.71,0,0,1-3.84-1c-.24-.23-.46-.48-.69-.73A3.88,3.88,0,0,1,.24,9.83a.69.69,0,0,1,.19-.34A.3.3,0,0,1,.79,9.4.63.63,0,0,1,1,9.63a.35.35,0,0,1,0,.2,3.71,3.71,0,0,0,.63,2.53,1.06,1.06,0,0,0,.32.37,4.77,4.77,0,0,0,1.68.63,12.48,12.48,0,0,0,1.5,0c.24,0,.57-.09.6-.28.08-.53.39-.36.72-.37A3.76,3.76,0,0,0,9.77,11.1a18.93,18.93,0,0,0,1-1.62,5.9,5.9,0,0,0-.21-6.09,9.63,9.63,0,0,0-.77-1A4,4,0,0,0,6,.9,5.23,5.23,0,0,0,1.6,4.33a1.51,1.51,0,0,1-.15.37A3.11,3.11,0,0,0,1,7.09Z"/><path d="M8.26,5.8A4.25,4.25,0,0,0,8.35,7a3.82,3.82,0,0,1,0,1.58.26.26,0,0,1-.13.14A.16.16,0,0,1,8,8.58c-.2-.7-.42-1.4-.57-2.11a3.51,3.51,0,0,1,.31-2,.34.34,0,0,1,.21-.18c.16,0,.23.13.24.26A4,4,0,0,1,8.26,5.8Z"/><path d="M4.52,6.66c0-.52.08-1,.15-1.58a1.31,1.31,0,0,1,.19-.44c0-.1.29-.08.34,0a1,1,0,0,1,.11.27,25.55,25.55,0,0,1-.1,2.77A.5.5,0,0,1,5.09,8a.28.28,0,0,1-.33.15.31.31,0,0,1-.25-.27c0-.23,0-.46,0-.69s0-.33,0-.5Z"/></g></g></svg>